<svg xmlns="http://www.w3.org/2000/svg" xmlns:xlink="http://www.w3.org/1999/xlink" width="500" zoomAndPan="magnify" viewBox="0 0 375 374.999991" height="500" preserveAspectRatio="xMidYMid meet" version="1.0"><defs><g/><clipPath id="60d518954b"><path d="M 11 136 L 101.738281 136 L 101.738281 226.109375 L 11 226.109375 Z M 11 136 " clip-rule="nonzero"/></clipPath><clipPath id="6cdc91d0d5"><path d="M 2.738281 130.109375 L 43 130.109375 L 43 170 L 2.738281 170 Z M 2.738281 130.109375 " clip-rule="nonzero"/></clipPath><clipPath id="7eba55c75c"><path d="M 56 136 L 101.738281 136 L 101.738281 226.109375 L 56 226.109375 Z M 56 136 " clip-rule="nonzero"/></clipPath><clipPath id="31a9d9fbf8"><path d="M 0.00390625 126.929688 L 45.636719 126.929688 L 45.636719 173.324219 L 0.00390625 173.324219 Z M 0.00390625 126.929688 " clip-rule="nonzero"/></clipPath><clipPath id="68eff61a6f"><path d="M 33 158 L 81.679688 158 L 81.679688 206.277344 L 33 206.277344 Z M 33 158 " clip-rule="nonzero"/></clipPath><clipPath id="a7872c7c86"><path d="M 27.09375 155.277344 L 52 155.277344 L 52 181 L 27.09375 181 Z M 27.09375 155.277344 " clip-rule="nonzero"/></clipPath></defs><g clip-path="url(#60d518954b)"><path fill="#5aff7a" d="M 56.875 136.304688 L 68.167969 136.304688 C 86.691406 136.304688 101.761719 151.375 101.761719 169.894531 L 101.761719 226.082031 L 45.578125 226.082031 C 27.054688 226.082031 11.984375 211.011719 11.984375 192.488281 L 11.984375 181.191406 L 30.710938 181.191406 L 30.710938 192.488281 C 30.710938 200.691406 37.375 207.355469 45.578125 207.355469 L 83.035156 207.355469 L 83.035156 169.894531 C 83.035156 161.699219 76.363281 155.03125 68.167969 155.03125 L 56.875 155.03125 Z M 56.875 136.304688 " fill-opacity="1" fill-rule="nonzero"/></g><g clip-path="url(#6cdc91d0d5)"><path fill="#14edb9" d="M 16.039062 143.140625 L 2.738281 143.140625 L 2.738281 156.238281 L 16.039062 156.238281 L 16.039062 169.539062 L 29.136719 169.539062 L 29.136719 156.238281 L 42.4375 156.238281 L 42.4375 143.140625 L 29.136719 143.140625 L 29.136719 129.835938 L 16.039062 129.835938 Z M 16.039062 143.140625 " fill-opacity="1" fill-rule="nonzero"/></g><g clip-path="url(#7eba55c75c)"><path fill="#d1ff5d" d="M 56.875 136.304688 L 68.167969 136.304688 C 86.691406 136.304688 101.761719 151.375 101.761719 169.894531 L 101.761719 226.082031 L 100.828125 226.082031 L 82.648438 207.355469 L 83.035156 207.355469 L 83.035156 169.894531 C 83.035156 161.699219 76.363281 155.03125 68.167969 155.03125 L 56.875 155.03125 Z M 56.875 136.304688 " fill-opacity="1" fill-rule="nonzero"/></g><g clip-path="url(#31a9d9fbf8)"><path fill="#0d2329" d="M 0.00390625 173.324219 L 0.00390625 126.980469 L 45.636719 126.980469 L 45.636719 173.324219 Z M 0.00390625 173.324219 " fill-opacity="1" fill-rule="nonzero"/></g><g clip-path="url(#68eff61a6f)"><path fill="#14edb9" d="M 34.644531 175.820312 C 34.308594 177.320312 34.132812 178.878906 34.132812 180.480469 C 34.132812 192.242188 43.664062 201.773438 55.421875 201.773438 C 67.183594 201.773438 76.714844 192.242188 76.714844 180.480469 C 76.714844 168.722656 67.183594 159.191406 55.421875 159.191406 C 51.351562 159.191406 47.546875 160.335938 44.3125 162.316406 C 48.160156 159.699219 52.804688 158.167969 57.808594 158.167969 C 71.070312 158.167969 81.824219 168.921875 81.824219 182.183594 C 81.824219 195.449219 71.070312 206.203125 57.808594 206.203125 C 44.542969 206.203125 33.789062 195.449219 33.789062 182.183594 C 33.789062 179.980469 34.089844 177.847656 34.644531 175.820312 " fill-opacity="1" fill-rule="nonzero"/></g><path fill="#5aff7a" d="M 56.042969 181.292969 C 57.164062 183.988281 56.34375 186.476562 55.558594 187.976562 C 55.617188 186.242188 53.988281 182.871094 50.441406 180.058594 C 50.441406 180.058594 53.757812 183.476562 54.609375 186.761719 C 55.21875 189.101562 57.148438 190.878906 59.542969 191.1875 C 60.59375 191.324219 61.683594 191.285156 62.78125 191.054688 C 67.96875 189.960938 71.328125 184.839844 70.273438 179.644531 C 69.234375 174.527344 64.328125 171.171875 59.210938 172.015625 C 59.328125 171.988281 59.445312 171.960938 59.566406 171.9375 C 65.226562 170.804688 70.734375 174.472656 71.867188 180.132812 C 73.003906 185.792969 69.332031 191.300781 63.675781 192.433594 C 60.757812 193.015625 57.882812 192.328125 55.625 190.746094 C 54.546875 189.992188 53.398438 189.347656 52.214844 188.78125 C 50.359375 187.898438 48.054688 185.851562 47.753906 181.121094 C 47.457031 176.472656 44.828125 174.917969 44.828125 174.917969 C 44.828125 174.917969 53.4375 175.039062 56.042969 181.292969 " fill-opacity="1" fill-rule="nonzero"/><path fill="#5aff7a" d="M 62.972656 181.921875 C 62.839844 187.722656 58.300781 188.101562 58.300781 188.101562 C 57.25 185.449219 61.011719 181.238281 61.011719 181.238281 C 58.550781 183.359375 57.480469 185.828125 57.574219 187.070312 C 56.964844 186.015625 56.304688 184.257812 57.03125 182.289062 C 58.714844 177.726562 64.886719 177.386719 64.886719 177.386719 C 64.886719 177.386719 63.046875 178.578125 62.972656 181.921875 " fill-opacity="1" fill-rule="nonzero"/><g clip-path="url(#a7872c7c86)"><path fill="#14edb9" d="M 34.910156 162.695312 L 34.910156 155.8125 C 34.910156 155.515625 35.152344 155.273438 35.449219 155.273438 L 43.488281 155.273438 C 43.789062 155.273438 44.027344 155.515625 44.027344 155.8125 L 44.027344 162.695312 C 44.027344 162.992188 44.269531 163.234375 44.566406 163.234375 L 51.449219 163.234375 C 51.746094 163.234375 51.988281 163.476562 51.988281 163.773438 L 51.988281 171.816406 C 51.988281 172.113281 51.746094 172.351562 51.449219 172.351562 L 44.566406 172.351562 C 44.269531 172.351562 44.027344 172.59375 44.027344 172.890625 L 44.027344 179.773438 C 44.027344 180.070312 43.789062 180.3125 43.488281 180.3125 L 35.449219 180.3125 C 35.152344 180.3125 34.910156 180.070312 34.910156 179.773438 L 34.910156 172.890625 C 34.910156 172.59375 34.667969 172.351562 34.371094 172.351562 L 27.488281 172.351562 C 27.191406 172.351562 26.949219 172.113281 26.949219 171.816406 L 26.949219 163.773438 C 26.949219 163.476562 27.191406 163.234375 27.488281 163.234375 L 34.371094 163.234375 C 34.667969 163.234375 34.910156 162.992188 34.910156 162.695312 " fill-opacity="1" fill-rule="nonzero"/></g><path fill="#14edb9" d="M 46.265625 192.320312 L 46.265625 190.359375 C 46.265625 190.273438 46.335938 190.207031 46.421875 190.207031 L 48.710938 190.207031 C 48.796875 190.207031 48.867188 190.273438 48.867188 190.359375 L 48.867188 192.320312 C 48.867188 192.40625 48.933594 192.476562 49.019531 192.476562 L 50.980469 192.476562 C 51.066406 192.476562 51.136719 192.542969 51.136719 192.628906 L 51.136719 194.921875 C 51.136719 195.003906 51.066406 195.074219 50.980469 195.074219 L 49.019531 195.074219 C 48.933594 195.074219 48.867188 195.144531 48.867188 195.226562 L 48.867188 197.1875 C 48.867188 197.273438 48.796875 197.34375 48.710938 197.34375 L 46.421875 197.34375 C 46.335938 197.34375 46.265625 197.273438 46.265625 197.1875 L 46.265625 195.226562 C 46.265625 195.144531 46.199219 195.074219 46.113281 195.074219 L 44.152344 195.074219 C 44.066406 195.074219 44 195.003906 44 194.921875 L 44 192.628906 C 44 192.542969 44.066406 192.476562 44.152344 192.476562 L 46.113281 192.476562 C 46.199219 192.476562 46.265625 192.40625 46.265625 192.320312 " fill-opacity="1" fill-rule="nonzero"/><path fill="#14edb9" d="M 60.71875 164.503906 L 60.71875 162.542969 C 60.71875 162.457031 60.789062 162.386719 60.875 162.386719 L 63.164062 162.386719 C 63.25 162.386719 63.320312 162.457031 63.320312 162.542969 L 63.320312 164.503906 C 63.320312 164.589844 63.386719 164.65625 63.472656 164.65625 L 65.433594 164.65625 C 65.519531 164.65625 65.589844 164.726562 65.589844 164.808594 L 65.589844 167.101562 C 65.589844 167.1875 65.519531 167.257812 65.433594 167.257812 L 63.472656 167.257812 C 63.386719 167.257812 63.320312 167.324219 63.320312 167.410156 L 63.320312 169.371094 C 63.320312 169.457031 63.25 169.523438 63.164062 169.523438 L 60.875 169.523438 C 60.789062 169.523438 60.71875 169.457031 60.71875 169.371094 L 60.71875 167.410156 C 60.71875 167.324219 60.652344 167.257812 60.566406 167.257812 L 58.605469 167.257812 C 58.519531 167.257812 58.453125 167.1875 58.453125 167.101562 L 58.453125 164.808594 C 58.453125 164.726562 58.519531 164.65625 58.605469 164.65625 L 60.566406 164.65625 C 60.652344 164.65625 60.71875 164.589844 60.71875 164.503906 " fill-opacity="1" fill-rule="nonzero"/><g fill="#ffffff" fill-opacity="1"><g transform="translate(106.425072, 199.977523)"><g><path d="M 5.328125 0 L 5.328125 -54.90625 L 17.25 -54.90625 L 34.75 -20.078125 L 52 -54.90625 L 63.921875 -54.90625 L 63.921875 0 L 53.890625 0 L 53.890625 -37.890625 L 38.59375 -7.84375 L 30.671875 -7.84375 L 15.375 -37.890625 L 15.375 0 Z M 5.328125 0 "/></g></g></g><g fill="#ffffff" fill-opacity="1"><g transform="translate(168.225826, 199.977523)"><g><path d="M 24 0.9375 C 20.082031 0.9375 16.601562 0.101562 13.5625 -1.5625 C 10.53125 -3.238281 8.148438 -5.59375 6.421875 -8.625 C 4.703125 -11.65625 3.84375 -15.160156 3.84375 -19.140625 C 3.84375 -23.160156 4.691406 -26.738281 6.390625 -29.875 C 8.085938 -33.019531 10.441406 -35.46875 13.453125 -37.21875 C 16.460938 -38.96875 20.003906 -39.84375 24.078125 -39.84375 C 27.898438 -39.84375 31.273438 -39.003906 34.203125 -37.328125 C 37.128906 -35.660156 39.414062 -33.375 41.0625 -30.46875 C 42.707031 -27.570312 43.53125 -24.34375 43.53125 -20.78125 C 43.53125 -20.207031 43.515625 -19.609375 43.484375 -18.984375 C 43.460938 -18.359375 43.425781 -17.703125 43.375 -17.015625 L 13.8125 -17.015625 C 14.019531 -13.984375 15.078125 -11.601562 16.984375 -9.875 C 18.890625 -8.15625 21.203125 -7.296875 23.921875 -7.296875 C 25.960938 -7.296875 27.675781 -7.753906 29.0625 -8.671875 C 30.445312 -9.585938 31.476562 -10.773438 32.15625 -12.234375 L 42.359375 -12.234375 C 41.628906 -9.773438 40.410156 -7.539062 38.703125 -5.53125 C 37.003906 -3.519531 34.910156 -1.9375 32.421875 -0.78125 C 29.941406 0.363281 27.132812 0.9375 24 0.9375 Z M 24.078125 -31.6875 C 21.617188 -31.6875 19.445312 -30.992188 17.5625 -29.609375 C 15.6875 -28.222656 14.488281 -26.117188 13.96875 -23.296875 L 33.34375 -23.296875 C 33.175781 -25.859375 32.226562 -27.894531 30.5 -29.40625 C 28.78125 -30.925781 26.640625 -31.6875 24.078125 -31.6875 Z M 24.078125 -31.6875 "/></g></g></g><g fill="#ffffff" fill-opacity="1"><g transform="translate(207.674522, 199.977523)"><g><path d="M 22.984375 0.9375 C 19.316406 0.9375 16.046875 0.0507812 13.171875 -1.71875 C 10.296875 -3.5 8.019531 -5.929688 6.34375 -9.015625 C 4.675781 -12.097656 3.84375 -15.601562 3.84375 -19.53125 C 3.84375 -23.445312 4.675781 -26.9375 6.34375 -30 C 8.019531 -33.0625 10.296875 -35.46875 13.171875 -37.21875 C 16.046875 -38.96875 19.316406 -39.84375 22.984375 -39.84375 C 25.910156 -39.84375 28.472656 -39.289062 30.671875 -38.1875 C 32.867188 -37.09375 34.644531 -35.554688 36 -33.578125 L 36 -56.46875 L 46.046875 -56.46875 L 46.046875 0 L 37.09375 0 L 36 -5.5625 C 34.75 -3.84375 33.085938 -2.328125 31.015625 -1.015625 C 28.953125 0.285156 26.273438 0.9375 22.984375 0.9375 Z M 25.09375 -7.84375 C 28.34375 -7.84375 31 -8.925781 33.0625 -11.09375 C 35.125 -13.269531 36.15625 -16.054688 36.15625 -19.453125 C 36.15625 -22.847656 35.125 -25.628906 33.0625 -27.796875 C 31 -29.972656 28.34375 -31.0625 25.09375 -31.0625 C 21.90625 -31.0625 19.265625 -29.988281 17.171875 -27.84375 C 15.085938 -25.695312 14.046875 -22.925781 14.046875 -19.53125 C 14.046875 -16.132812 15.085938 -13.335938 17.171875 -11.140625 C 19.265625 -8.941406 21.90625 -7.84375 25.09375 -7.84375 Z M 25.09375 -7.84375 "/></g></g></g><g fill="#ffffff" fill-opacity="1"><g transform="translate(251.358348, 199.977523)"><g><path d="M 10.515625 -44.9375 C 8.679688 -44.9375 7.175781 -45.484375 6 -46.578125 C 4.820312 -47.679688 4.234375 -49.070312 4.234375 -50.75 C 4.234375 -52.425781 4.820312 -53.796875 6 -54.859375 C 7.175781 -55.929688 8.679688 -56.46875 10.515625 -56.46875 C 12.335938 -56.46875 13.835938 -55.929688 15.015625 -54.859375 C 16.191406 -53.796875 16.78125 -52.425781 16.78125 -50.75 C 16.78125 -49.070312 16.191406 -47.679688 15.015625 -46.578125 C 13.835938 -45.484375 12.335938 -44.9375 10.515625 -44.9375 Z M 5.484375 0 L 5.484375 -38.90625 L 15.53125 -38.90625 L 15.53125 0 Z M 5.484375 0 "/></g></g></g><g fill="#ffffff" fill-opacity="1"><g transform="translate(264.847277, 199.977523)"><g><path d="M 24.15625 0.9375 C 20.1875 0.9375 16.679688 0.078125 13.640625 -1.640625 C 10.609375 -3.367188 8.21875 -5.773438 6.46875 -8.859375 C 4.71875 -11.941406 3.84375 -15.472656 3.84375 -19.453125 C 3.84375 -23.421875 4.71875 -26.945312 6.46875 -30.03125 C 8.21875 -33.125 10.609375 -35.53125 13.640625 -37.25 C 16.679688 -38.976562 20.1875 -39.84375 24.15625 -39.84375 C 29.125 -39.84375 33.304688 -38.546875 36.703125 -35.953125 C 40.109375 -33.367188 42.28125 -29.800781 43.21875 -25.25 L 32.625 -25.25 C 32.101562 -27.132812 31.070312 -28.613281 29.53125 -29.6875 C 27.988281 -30.757812 26.171875 -31.296875 24.078125 -31.296875 C 21.304688 -31.296875 18.953125 -30.25 17.015625 -28.15625 C 15.085938 -26.0625 14.125 -23.160156 14.125 -19.453125 C 14.125 -15.742188 15.085938 -12.84375 17.015625 -10.75 C 18.953125 -8.65625 21.304688 -7.609375 24.078125 -7.609375 C 26.171875 -7.609375 27.988281 -8.128906 29.53125 -9.171875 C 31.070312 -10.222656 32.101562 -11.710938 32.625 -13.640625 L 43.21875 -13.640625 C 42.28125 -9.253906 40.109375 -5.726562 36.703125 -3.0625 C 33.304688 -0.394531 29.125 0.9375 24.15625 0.9375 Z M 24.15625 0.9375 "/></g></g></g><g fill="#ffffff" fill-opacity="1"><g transform="translate(304.452834, 199.977523)"><g><path d="M 18.515625 0.9375 C 15.160156 0.9375 12.410156 0.398438 10.265625 -0.671875 C 8.128906 -1.742188 6.535156 -3.164062 5.484375 -4.9375 C 4.441406 -6.71875 3.921875 -8.679688 3.921875 -10.828125 C 3.921875 -14.429688 5.332031 -17.359375 8.15625 -19.609375 C 10.976562 -21.859375 15.210938 -22.984375 20.859375 -22.984375 L 30.75 -22.984375 L 30.75 -23.921875 C 30.75 -26.585938 29.988281 -28.546875 28.46875 -29.796875 C 26.957031 -31.054688 25.078125 -31.6875 22.828125 -31.6875 C 20.785156 -31.6875 19.003906 -31.203125 17.484375 -30.234375 C 15.972656 -29.265625 15.035156 -27.84375 14.671875 -25.96875 L 4.859375 -25.96875 C 5.117188 -28.789062 6.070312 -31.242188 7.71875 -33.328125 C 9.375 -35.421875 11.507812 -37.03125 14.125 -38.15625 C 16.738281 -39.28125 19.664062 -39.84375 22.90625 -39.84375 C 28.445312 -39.84375 32.8125 -38.457031 36 -35.6875 C 39.1875 -32.914062 40.78125 -28.992188 40.78125 -23.921875 L 40.78125 0 L 32.234375 0 L 31.296875 -6.28125 C 30.148438 -4.1875 28.539062 -2.457031 26.46875 -1.09375 C 24.40625 0.257812 21.753906 0.9375 18.515625 0.9375 Z M 20.78125 -6.90625 C 23.65625 -6.90625 25.890625 -7.84375 27.484375 -9.71875 C 29.085938 -11.601562 30.097656 -13.929688 30.515625 -16.703125 L 21.96875 -16.703125 C 19.300781 -16.703125 17.390625 -16.21875 16.234375 -15.25 C 15.085938 -14.289062 14.515625 -13.101562 14.515625 -11.6875 C 14.515625 -10.164062 15.085938 -8.988281 16.234375 -8.15625 C 17.390625 -7.320312 18.90625 -6.90625 20.78125 -6.90625 Z M 20.78125 -6.90625 "/></g></g></g><g fill="#ffffff" fill-opacity="1"><g transform="translate(342.254536, 199.977523)"><g><path d="M 5.09375 0 L 5.09375 -56.46875 L 15.140625 -56.46875 L 15.140625 0 Z M 5.09375 0 "/></g></g></g><g fill="#d1ff5d" fill-opacity="1"><g transform="translate(109.660567, 220.568588)"><g><path d="M 1.34375 0 L 1.34375 -12.65625 L 2.859375 -12.65625 L 2.859375 -7.0625 L 9.421875 -7.0625 L 9.421875 -12.65625 L 10.9375 -12.65625 L 10.9375 0 L 9.421875 0 L 9.421875 -5.828125 L 2.859375 -5.828125 L 2.859375 0 Z M 1.34375 0 "/></g></g></g><g fill="#d1ff5d" fill-opacity="1"><g transform="translate(135.028851, 220.568588)"><g><path d="M 1.34375 0 L 1.34375 -12.65625 L 9.171875 -12.65625 L 9.171875 -11.40625 L 2.859375 -11.40625 L 2.859375 -7 L 8.625 -7 L 8.625 -5.765625 L 2.859375 -5.765625 L 2.859375 -1.25 L 9.171875 -1.25 L 9.171875 0 Z M 1.34375 0 "/></g></g></g><g fill="#d1ff5d" fill-opacity="1"><g transform="translate(158.320043, 220.568588)"><g><path d="M 0.546875 0 L 5.203125 -12.65625 L 6.8125 -12.65625 L 11.46875 0 L 9.859375 0 L 8.703125 -3.25 L 3.3125 -3.25 L 2.140625 0 Z M 3.765625 -4.484375 L 8.25 -4.484375 L 6 -10.734375 Z M 3.765625 -4.484375 "/></g></g></g><g fill="#d1ff5d" fill-opacity="1"><g transform="translate(183.417401, 220.568588)"><g><path d="M 1.34375 0 L 1.34375 -12.65625 L 2.859375 -12.65625 L 2.859375 -1.21875 L 8.75 -1.21875 L 8.75 0 Z M 1.34375 0 "/></g></g></g><g fill="#d1ff5d" fill-opacity="1"><g transform="translate(206.004178, 220.568588)"><g><path d="M 4.296875 0 L 4.296875 -11.40625 L 0.53125 -11.40625 L 0.53125 -12.65625 L 9.59375 -12.65625 L 9.59375 -11.40625 L 5.828125 -11.40625 L 5.828125 0 Z M 4.296875 0 "/></g></g></g><g fill="#d1ff5d" fill-opacity="1"><g transform="translate(229.22311, 220.568588)"><g><path d="M 1.34375 0 L 1.34375 -12.65625 L 2.859375 -12.65625 L 2.859375 -7.0625 L 9.421875 -7.0625 L 9.421875 -12.65625 L 10.9375 -12.65625 L 10.9375 0 L 9.421875 0 L 9.421875 -5.828125 L 2.859375 -5.828125 L 2.859375 0 Z M 1.34375 0 "/></g></g></g><g fill="#d1ff5d" fill-opacity="1"><g transform="translate(254.591394, 220.568588)"><g/></g></g><g fill="#d1ff5d" fill-opacity="1"><g transform="translate(272.482154, 220.568588)"><g><path d="M 6.890625 0.21875 C 5.648438 0.21875 4.578125 -0.0507812 3.671875 -0.59375 C 2.773438 -1.144531 2.078125 -1.910156 1.578125 -2.890625 C 1.085938 -3.878906 0.84375 -5.023438 0.84375 -6.328125 C 0.84375 -7.617188 1.085938 -8.753906 1.578125 -9.734375 C 2.078125 -10.710938 2.773438 -11.476562 3.671875 -12.03125 C 4.578125 -12.59375 5.648438 -12.875 6.890625 -12.875 C 8.335938 -12.875 9.515625 -12.523438 10.421875 -11.828125 C 11.328125 -11.140625 11.910156 -10.175781 12.171875 -8.9375 L 10.484375 -8.9375 C 10.296875 -9.71875 9.898438 -10.34375 9.296875 -10.8125 C 8.703125 -11.289062 7.898438 -11.53125 6.890625 -11.53125 C 5.984375 -11.53125 5.191406 -11.320312 4.515625 -10.90625 C 3.835938 -10.488281 3.316406 -9.890625 2.953125 -9.109375 C 2.585938 -8.335938 2.40625 -7.410156 2.40625 -6.328125 C 2.40625 -5.242188 2.585938 -4.3125 2.953125 -3.53125 C 3.316406 -2.757812 3.835938 -2.164062 4.515625 -1.75 C 5.191406 -1.332031 5.984375 -1.125 6.890625 -1.125 C 7.898438 -1.125 8.703125 -1.351562 9.296875 -1.8125 C 9.898438 -2.28125 10.296875 -2.898438 10.484375 -3.671875 L 12.171875 -3.671875 C 11.910156 -2.453125 11.328125 -1.5 10.421875 -0.8125 C 9.515625 -0.125 8.335938 0.21875 6.890625 0.21875 Z M 6.890625 0.21875 "/></g></g></g><g fill="#d1ff5d" fill-opacity="1"><g transform="translate(298.590961, 220.568588)"><g><path d="M 0.546875 0 L 5.203125 -12.65625 L 6.8125 -12.65625 L 11.46875 0 L 9.859375 0 L 8.703125 -3.25 L 3.3125 -3.25 L 2.140625 0 Z M 3.765625 -4.484375 L 8.25 -4.484375 L 6 -10.734375 Z M 3.765625 -4.484375 "/></g></g></g><g fill="#d1ff5d" fill-opacity="1"><g transform="translate(323.688307, 220.568588)"><g><path d="M 1.34375 0 L 1.34375 -12.65625 L 5.421875 -12.65625 C 6.410156 -12.65625 7.21875 -12.488281 7.84375 -12.15625 C 8.46875 -11.832031 8.929688 -11.390625 9.234375 -10.828125 C 9.535156 -10.265625 9.6875 -9.640625 9.6875 -8.953125 C 9.6875 -8.148438 9.472656 -7.429688 9.046875 -6.796875 C 8.617188 -6.160156 7.953125 -5.707031 7.046875 -5.4375 L 9.8125 0 L 8.03125 0 L 5.453125 -5.21875 L 2.859375 -5.21875 L 2.859375 0 Z M 2.859375 -6.421875 L 5.3125 -6.421875 C 6.289062 -6.421875 7 -6.65625 7.4375 -7.125 C 7.882812 -7.59375 8.109375 -8.195312 8.109375 -8.9375 C 8.109375 -9.675781 7.890625 -10.265625 7.453125 -10.703125 C 7.015625 -11.148438 6.296875 -11.375 5.296875 -11.375 L 2.859375 -11.375 Z M 2.859375 -6.421875 "/></g></g></g><g fill="#d1ff5d" fill-opacity="1"><g transform="translate(347.503277, 220.568588)"><g><path d="M 1.34375 0 L 1.34375 -12.65625 L 9.171875 -12.65625 L 9.171875 -11.40625 L 2.859375 -11.40625 L 2.859375 -7 L 8.625 -7 L 8.625 -5.765625 L 2.859375 -5.765625 L 2.859375 -1.25 L 9.171875 -1.25 L 9.171875 0 Z M 1.34375 0 "/></g></g></g></svg>