<svg xmlns="http://www.w3.org/2000/svg" xmlns:xlink="http://www.w3.org/1999/xlink" width="500" zoomAndPan="magnify" viewBox="0 0 375 374.999991" height="500" preserveAspectRatio="xMidYMid meet" version="1.0"><defs><g/><clipPath id="c0e9bf2e7c"><path d="M 56 157 L 123.613281 157 L 123.613281 224.367188 L 56 224.367188 Z M 56 157 " clip-rule="nonzero"/></clipPath><clipPath id="a5a480fc48"><path d="M 50.113281 153.117188 L 80 153.117188 L 80 183 L 50.113281 183 Z M 50.113281 153.117188 " clip-rule="nonzero"/></clipPath><clipPath id="fde8d8696c"><path d="M 90 157 L 123.613281 157 L 123.613281 224.367188 L 90 224.367188 Z M 90 157 " clip-rule="nonzero"/></clipPath><clipPath id="f49b5c23cd"><path d="M 48.078125 150.621094 L 82.007812 150.621094 L 82.007812 185.117188 L 48.078125 185.117188 Z M 48.078125 150.621094 " clip-rule="nonzero"/></clipPath><clipPath id="62b28160ca"><path d="M 73 173 L 108.605469 173 L 108.605469 209.203125 L 73 209.203125 Z M 73 173 " clip-rule="nonzero"/></clipPath><clipPath id="fbad6a1267"><path d="M 68.433594 171.703125 L 87 171.703125 L 87 191 L 68.433594 191 Z M 68.433594 171.703125 " clip-rule="nonzero"/></clipPath></defs><g clip-path="url(#c0e9bf2e7c)"><path fill="#5aff7a" d="M 90.367188 157.59375 L 98.765625 157.59375 C 112.539062 157.59375 123.742188 168.800781 123.742188 182.570312 L 123.742188 224.347656 L 81.96875 224.347656 C 68.195312 224.347656 56.992188 213.140625 56.992188 199.371094 L 56.992188 190.972656 L 70.914062 190.972656 L 70.914062 199.371094 C 70.914062 205.46875 75.871094 210.421875 81.96875 210.421875 L 109.820312 210.421875 L 109.820312 182.570312 C 109.820312 176.476562 104.859375 171.519531 98.765625 171.519531 L 90.367188 171.519531 Z M 90.367188 157.59375 " fill-opacity="1" fill-rule="nonzero"/></g><g clip-path="url(#a5a480fc48)"><path fill="#14edb9" d="M 60.003906 162.675781 L 50.113281 162.675781 L 50.113281 172.414062 L 60.003906 172.414062 L 60.003906 182.304688 L 69.742188 182.304688 L 69.742188 172.414062 L 79.632812 172.414062 L 79.632812 162.675781 L 69.742188 162.675781 L 69.742188 152.785156 L 60.003906 152.785156 Z M 60.003906 162.675781 " fill-opacity="1" fill-rule="nonzero"/></g><g clip-path="url(#fde8d8696c)"><path fill="#d1ff5d" d="M 90.367188 157.59375 L 98.765625 157.59375 C 112.539062 157.59375 123.742188 168.800781 123.742188 182.570312 L 123.742188 224.347656 L 123.050781 224.347656 L 109.53125 210.421875 L 109.820312 210.421875 L 109.820312 182.570312 C 109.820312 176.476562 104.859375 171.519531 98.765625 171.519531 L 90.367188 171.519531 Z M 90.367188 157.59375 " fill-opacity="1" fill-rule="nonzero"/></g><g clip-path="url(#f49b5c23cd)"><path fill="#0d2329" d="M 48.078125 185.117188 L 48.078125 150.65625 L 82.007812 150.65625 L 82.007812 185.117188 Z M 48.078125 185.117188 " fill-opacity="1" fill-rule="nonzero"/></g><g clip-path="url(#62b28160ca)"><path fill="#14edb9" d="M 73.84375 186.972656 C 73.59375 188.089844 73.460938 189.25 73.460938 190.441406 C 73.460938 199.183594 80.546875 206.269531 89.289062 206.269531 C 98.03125 206.269531 105.117188 199.183594 105.117188 190.441406 C 105.117188 181.699219 98.03125 174.609375 89.289062 174.609375 C 86.261719 174.609375 83.433594 175.460938 81.03125 176.933594 C 83.890625 174.988281 87.34375 173.851562 91.0625 173.851562 C 100.925781 173.851562 108.917969 181.84375 108.917969 191.707031 C 108.917969 201.566406 100.925781 209.5625 91.0625 209.5625 C 81.203125 209.5625 73.207031 201.566406 73.207031 191.707031 C 73.207031 190.066406 73.429688 188.480469 73.84375 186.972656 " fill-opacity="1" fill-rule="nonzero"/></g><path fill="#5aff7a" d="M 89.75 191.042969 C 90.585938 193.046875 89.976562 194.894531 89.390625 196.011719 C 89.433594 194.722656 88.222656 192.214844 85.585938 190.125 C 85.585938 190.125 88.050781 192.667969 88.683594 195.109375 C 89.136719 196.847656 90.570312 198.167969 92.355469 198.398438 C 93.132812 198.5 93.945312 198.472656 94.761719 198.300781 C 98.617188 197.488281 101.117188 193.679688 100.332031 189.816406 C 99.558594 186.011719 95.910156 183.519531 92.105469 184.144531 C 92.191406 184.125 92.28125 184.105469 92.371094 184.089844 C 96.578125 183.246094 100.671875 185.972656 101.515625 190.179688 C 102.359375 194.386719 99.632812 198.480469 95.425781 199.324219 C 93.257812 199.757812 91.117188 199.246094 89.441406 198.070312 C 88.640625 197.507812 87.785156 197.03125 86.902344 196.609375 C 85.523438 195.953125 83.8125 194.429688 83.585938 190.914062 C 83.367188 187.460938 81.414062 186.304688 81.414062 186.304688 C 81.414062 186.304688 87.816406 186.394531 89.75 191.042969 " fill-opacity="1" fill-rule="nonzero"/><path fill="#5aff7a" d="M 94.902344 191.511719 C 94.804688 195.824219 91.429688 196.105469 91.429688 196.105469 C 90.648438 194.132812 93.445312 191.003906 93.445312 191.003906 C 91.613281 192.578125 90.820312 194.414062 90.886719 195.339844 C 90.4375 194.554688 89.945312 193.246094 90.484375 191.785156 C 91.738281 188.390625 96.324219 188.136719 96.324219 188.136719 C 96.324219 188.136719 94.960938 189.023438 94.902344 191.511719 " fill-opacity="1" fill-rule="nonzero"/><g clip-path="url(#fbad6a1267)"><path fill="#14edb9" d="M 74.039062 177.214844 L 74.039062 172.101562 C 74.039062 171.878906 74.21875 171.699219 74.4375 171.699219 L 80.417969 171.699219 C 80.640625 171.699219 80.820312 171.878906 80.820312 172.101562 L 80.820312 177.214844 C 80.820312 177.4375 81 177.617188 81.21875 177.617188 L 86.335938 177.617188 C 86.554688 177.617188 86.734375 177.796875 86.734375 178.015625 L 86.734375 183.996094 C 86.734375 184.21875 86.554688 184.394531 86.335938 184.394531 L 81.21875 184.394531 C 81 184.394531 80.820312 184.574219 80.820312 184.796875 L 80.820312 189.914062 C 80.820312 190.132812 80.640625 190.3125 80.417969 190.3125 L 74.4375 190.3125 C 74.21875 190.3125 74.039062 190.132812 74.039062 189.914062 L 74.039062 184.796875 C 74.039062 184.574219 73.859375 184.394531 73.636719 184.394531 L 68.523438 184.394531 C 68.300781 184.394531 68.121094 184.21875 68.121094 183.996094 L 68.121094 178.015625 C 68.121094 177.796875 68.300781 177.617188 68.523438 177.617188 L 73.636719 177.617188 C 73.859375 177.617188 74.039062 177.4375 74.039062 177.214844 " fill-opacity="1" fill-rule="nonzero"/></g><path fill="#14edb9" d="M 82.484375 199.242188 L 82.484375 197.78125 C 82.484375 197.71875 82.535156 197.667969 82.597656 197.667969 L 84.300781 197.667969 C 84.363281 197.667969 84.414062 197.71875 84.414062 197.78125 L 84.414062 199.242188 C 84.414062 199.304688 84.464844 199.355469 84.53125 199.355469 L 85.988281 199.355469 C 86.050781 199.355469 86.101562 199.40625 86.101562 199.46875 L 86.101562 201.175781 C 86.101562 201.238281 86.050781 201.289062 85.988281 201.289062 L 84.53125 201.289062 C 84.464844 201.289062 84.414062 201.339844 84.414062 201.402344 L 84.414062 202.859375 C 84.414062 202.925781 84.363281 202.976562 84.300781 202.976562 L 82.597656 202.976562 C 82.535156 202.976562 82.484375 202.925781 82.484375 202.859375 L 82.484375 201.402344 C 82.484375 201.339844 82.433594 201.289062 82.367188 201.289062 L 80.910156 201.289062 C 80.847656 201.289062 80.796875 201.238281 80.796875 201.175781 L 80.796875 199.46875 C 80.796875 199.40625 80.847656 199.355469 80.910156 199.355469 L 82.367188 199.355469 C 82.433594 199.355469 82.484375 199.304688 82.484375 199.242188 " fill-opacity="1" fill-rule="nonzero"/><path fill="#14edb9" d="M 93.226562 178.5625 L 93.226562 177.101562 C 93.226562 177.039062 93.277344 176.988281 93.34375 176.988281 L 95.046875 176.988281 C 95.109375 176.988281 95.160156 177.039062 95.160156 177.101562 L 95.160156 178.5625 C 95.160156 178.625 95.210938 178.675781 95.273438 178.675781 L 96.734375 178.675781 C 96.796875 178.675781 96.847656 178.726562 96.847656 178.789062 L 96.847656 180.492188 C 96.847656 180.554688 96.796875 180.605469 96.734375 180.605469 L 95.273438 180.605469 C 95.210938 180.605469 95.160156 180.660156 95.160156 180.722656 L 95.160156 182.179688 C 95.160156 182.242188 95.109375 182.292969 95.046875 182.292969 L 93.34375 182.292969 C 93.277344 182.292969 93.226562 182.242188 93.226562 182.179688 L 93.226562 180.722656 C 93.226562 180.660156 93.175781 180.605469 93.113281 180.605469 L 91.65625 180.605469 C 91.59375 180.605469 91.542969 180.554688 91.542969 180.492188 L 91.542969 178.789062 C 91.542969 178.726562 91.59375 178.675781 91.65625 178.675781 L 93.113281 178.675781 C 93.175781 178.675781 93.226562 178.625 93.226562 178.5625 " fill-opacity="1" fill-rule="nonzero"/><g fill="#ffffff" fill-opacity="1"><g transform="translate(127.215435, 204.939095)"><g><path d="M 3.96875 0 L 3.96875 -40.8125 L 12.828125 -40.8125 L 25.828125 -14.921875 L 38.65625 -40.8125 L 47.53125 -40.8125 L 47.53125 0 L 40.0625 0 L 40.0625 -28.171875 L 28.6875 -5.828125 L 22.796875 -5.828125 L 11.421875 -28.171875 L 11.421875 0 Z M 3.96875 0 "/></g></g></g><g fill="#ffffff" fill-opacity="1"><g transform="translate(173.168376, 204.939095)"><g><path d="M 17.84375 0.703125 C 14.925781 0.703125 12.335938 0.0820312 10.078125 -1.15625 C 7.828125 -2.40625 6.0625 -4.15625 4.78125 -6.40625 C 3.5 -8.664062 2.859375 -11.273438 2.859375 -14.234375 C 2.859375 -17.222656 3.488281 -19.882812 4.75 -22.21875 C 6.007812 -24.550781 7.757812 -26.367188 10 -27.671875 C 12.238281 -28.972656 14.875 -29.625 17.90625 -29.625 C 20.738281 -29.625 23.242188 -29 25.421875 -27.75 C 27.597656 -26.507812 29.296875 -24.8125 30.515625 -22.65625 C 31.742188 -20.5 32.359375 -18.097656 32.359375 -15.453125 C 32.359375 -15.023438 32.347656 -14.578125 32.328125 -14.109375 C 32.316406 -13.640625 32.289062 -13.15625 32.25 -12.65625 L 10.265625 -12.65625 C 10.421875 -10.394531 11.207031 -8.625 12.625 -7.34375 C 14.039062 -6.0625 15.757812 -5.421875 17.78125 -5.421875 C 19.300781 -5.421875 20.578125 -5.757812 21.609375 -6.4375 C 22.640625 -7.125 23.40625 -8.007812 23.90625 -9.09375 L 31.484375 -9.09375 C 30.941406 -7.269531 30.035156 -5.609375 28.765625 -4.109375 C 27.503906 -2.609375 25.953125 -1.429688 24.109375 -0.578125 C 22.265625 0.273438 20.175781 0.703125 17.84375 0.703125 Z M 17.90625 -23.5625 C 16.070312 -23.5625 14.457031 -23.046875 13.0625 -22.015625 C 11.664062 -20.984375 10.769531 -19.414062 10.375 -17.3125 L 24.78125 -17.3125 C 24.664062 -19.21875 23.96875 -20.734375 22.6875 -21.859375 C 21.40625 -22.992188 19.8125 -23.5625 17.90625 -23.5625 Z M 17.90625 -23.5625 "/></g></g></g><g fill="#ffffff" fill-opacity="1"><g transform="translate(202.501087, 204.939095)"><g><path d="M 17.078125 0.703125 C 14.359375 0.703125 11.929688 0.0390625 9.796875 -1.28125 C 7.660156 -2.601562 5.96875 -4.410156 4.71875 -6.703125 C 3.476562 -8.992188 2.859375 -11.597656 2.859375 -14.515625 C 2.859375 -17.429688 3.476562 -20.023438 4.71875 -22.296875 C 5.96875 -24.578125 7.660156 -26.367188 9.796875 -27.671875 C 11.929688 -28.972656 14.359375 -29.625 17.078125 -29.625 C 19.253906 -29.625 21.160156 -29.210938 22.796875 -28.390625 C 24.429688 -27.578125 25.753906 -26.429688 26.765625 -24.953125 L 26.765625 -41.984375 L 34.234375 -41.984375 L 34.234375 0 L 27.578125 0 L 26.765625 -4.140625 C 25.828125 -2.859375 24.59375 -1.726562 23.0625 -0.75 C 21.53125 0.21875 19.535156 0.703125 17.078125 0.703125 Z M 18.65625 -5.828125 C 21.070312 -5.828125 23.046875 -6.632812 24.578125 -8.25 C 26.109375 -9.863281 26.875 -11.9375 26.875 -14.46875 C 26.875 -16.988281 26.109375 -19.054688 24.578125 -20.671875 C 23.046875 -22.285156 21.070312 -23.09375 18.65625 -23.09375 C 16.289062 -23.09375 14.328125 -22.296875 12.765625 -20.703125 C 11.210938 -19.109375 10.4375 -17.046875 10.4375 -14.515625 C 10.4375 -11.992188 11.210938 -9.914062 12.765625 -8.28125 C 14.328125 -6.644531 16.289062 -5.828125 18.65625 -5.828125 Z M 18.65625 -5.828125 "/></g></g></g><g fill="#ffffff" fill-opacity="1"><g transform="translate(234.982895, 204.939095)"><g><path d="M 7.8125 -33.40625 C 6.445312 -33.40625 5.328125 -33.8125 4.453125 -34.625 C 3.585938 -35.445312 3.15625 -36.484375 3.15625 -37.734375 C 3.15625 -38.972656 3.585938 -39.988281 4.453125 -40.78125 C 5.328125 -41.582031 6.445312 -41.984375 7.8125 -41.984375 C 9.175781 -41.984375 10.296875 -41.582031 11.171875 -40.78125 C 12.046875 -39.988281 12.484375 -38.972656 12.484375 -37.734375 C 12.484375 -36.484375 12.046875 -35.445312 11.171875 -34.625 C 10.296875 -33.8125 9.175781 -33.40625 7.8125 -33.40625 Z M 4.078125 0 L 4.078125 -28.921875 L 11.546875 -28.921875 L 11.546875 0 Z M 4.078125 0 "/></g></g></g><g fill="#ffffff" fill-opacity="1"><g transform="translate(245.012805, 204.939095)"><g><path d="M 17.953125 0.703125 C 15.003906 0.703125 12.398438 0.0625 10.140625 -1.21875 C 7.890625 -2.507812 6.113281 -4.300781 4.8125 -6.59375 C 3.507812 -8.882812 2.859375 -11.507812 2.859375 -14.46875 C 2.859375 -17.414062 3.507812 -20.035156 4.8125 -22.328125 C 6.113281 -24.628906 7.890625 -26.421875 10.140625 -27.703125 C 12.398438 -28.984375 15.003906 -29.625 17.953125 -29.625 C 21.648438 -29.625 24.757812 -28.660156 27.28125 -26.734375 C 29.8125 -24.804688 31.425781 -22.15625 32.125 -18.78125 L 24.265625 -18.78125 C 23.867188 -20.175781 23.097656 -21.269531 21.953125 -22.0625 C 20.804688 -22.863281 19.457031 -23.265625 17.90625 -23.265625 C 15.84375 -23.265625 14.09375 -22.488281 12.65625 -20.9375 C 11.21875 -19.382812 10.5 -17.226562 10.5 -14.46875 C 10.5 -11.707031 11.21875 -9.546875 12.65625 -7.984375 C 14.09375 -6.429688 15.84375 -5.65625 17.90625 -5.65625 C 19.457031 -5.65625 20.804688 -6.039062 21.953125 -6.8125 C 23.097656 -7.59375 23.867188 -8.703125 24.265625 -10.140625 L 32.125 -10.140625 C 31.425781 -6.878906 29.8125 -4.253906 27.28125 -2.265625 C 24.757812 -0.285156 21.648438 0.703125 17.953125 0.703125 Z M 17.953125 0.703125 "/></g></g></g><g fill="#ffffff" fill-opacity="1"><g transform="translate(274.462152, 204.939095)"><g><path d="M 13.765625 0.703125 C 11.273438 0.703125 9.234375 0.304688 7.640625 -0.484375 C 6.046875 -1.285156 4.859375 -2.347656 4.078125 -3.671875 C 3.304688 -4.992188 2.921875 -6.453125 2.921875 -8.046875 C 2.921875 -10.734375 3.96875 -12.910156 6.0625 -14.578125 C 8.164062 -16.242188 11.316406 -17.078125 15.515625 -17.078125 L 22.859375 -17.078125 L 22.859375 -17.78125 C 22.859375 -19.769531 22.289062 -21.226562 21.15625 -22.15625 C 20.03125 -23.09375 18.632812 -23.5625 16.96875 -23.5625 C 15.445312 -23.5625 14.125 -23.203125 13 -22.484375 C 11.875 -21.765625 11.175781 -20.703125 10.90625 -19.296875 L 3.609375 -19.296875 C 3.804688 -21.398438 4.515625 -23.226562 5.734375 -24.78125 C 6.960938 -26.332031 8.546875 -27.523438 10.484375 -28.359375 C 12.429688 -29.203125 14.613281 -29.625 17.03125 -29.625 C 21.144531 -29.625 24.390625 -28.59375 26.765625 -26.53125 C 29.140625 -24.46875 30.328125 -21.550781 30.328125 -17.78125 L 30.328125 0 L 23.96875 0 L 23.265625 -4.671875 C 22.410156 -3.109375 21.210938 -1.820312 19.671875 -0.8125 C 18.140625 0.195312 16.171875 0.703125 13.765625 0.703125 Z M 15.453125 -5.125 C 17.585938 -5.125 19.25 -5.820312 20.4375 -7.21875 C 21.625 -8.625 22.375 -10.359375 22.6875 -12.421875 L 16.328125 -12.421875 C 14.347656 -12.421875 12.925781 -12.0625 12.0625 -11.34375 C 11.207031 -10.625 10.78125 -9.738281 10.78125 -8.6875 C 10.78125 -7.5625 11.207031 -6.6875 12.0625 -6.0625 C 12.925781 -5.4375 14.054688 -5.125 15.453125 -5.125 Z M 15.453125 -5.125 "/></g></g></g><g fill="#ffffff" fill-opacity="1"><g transform="translate(302.570213, 204.939095)"><g><path d="M 3.796875 0 L 3.796875 -41.984375 L 11.25 -41.984375 L 11.25 0 Z M 3.796875 0 "/></g></g></g><g fill="#d1ff5d" fill-opacity="1"><g transform="translate(129.621236, 220.249896)"><g><path d="M 1 0 L 1 -9.40625 L 2.125 -9.40625 L 2.125 -5.25 L 7 -5.25 L 7 -9.40625 L 8.125 -9.40625 L 8.125 0 L 7 0 L 7 -4.328125 L 2.125 -4.328125 L 2.125 0 Z M 1 0 "/></g></g></g><g fill="#d1ff5d" fill-opacity="1"><g transform="translate(148.48423, 220.249896)"><g><path d="M 1 0 L 1 -9.40625 L 6.8125 -9.40625 L 6.8125 -8.484375 L 2.125 -8.484375 L 2.125 -5.203125 L 6.40625 -5.203125 L 6.40625 -4.28125 L 2.125 -4.28125 L 2.125 -0.921875 L 6.8125 -0.921875 L 6.8125 0 Z M 1 0 "/></g></g></g><g fill="#d1ff5d" fill-opacity="1"><g transform="translate(165.802769, 220.249896)"><g><path d="M 0.40625 0 L 3.875 -9.40625 L 5.0625 -9.40625 L 8.515625 0 L 7.328125 0 L 6.46875 -2.421875 L 2.453125 -2.421875 L 1.578125 0 Z M 2.796875 -3.328125 L 6.125 -3.328125 L 4.46875 -7.984375 Z M 2.796875 -3.328125 "/></g></g></g><g fill="#d1ff5d" fill-opacity="1"><g transform="translate(184.464312, 220.249896)"><g><path d="M 1 0 L 1 -9.40625 L 2.125 -9.40625 L 2.125 -0.90625 L 6.5 -0.90625 L 6.5 0 Z M 1 0 "/></g></g></g><g fill="#d1ff5d" fill-opacity="1"><g transform="translate(201.259072, 220.249896)"><g><path d="M 3.203125 0 L 3.203125 -8.484375 L 0.390625 -8.484375 L 0.390625 -9.40625 L 7.140625 -9.40625 L 7.140625 -8.484375 L 4.328125 -8.484375 L 4.328125 0 Z M 3.203125 0 "/></g></g></g><g fill="#d1ff5d" fill-opacity="1"><g transform="translate(218.523881, 220.249896)"><g><path d="M 1 0 L 1 -9.40625 L 2.125 -9.40625 L 2.125 -5.25 L 7 -5.25 L 7 -9.40625 L 8.125 -9.40625 L 8.125 0 L 7 0 L 7 -4.328125 L 2.125 -4.328125 L 2.125 0 Z M 1 0 "/></g></g></g><g fill="#d1ff5d" fill-opacity="1"><g transform="translate(237.386876, 220.249896)"><g/></g></g><g fill="#d1ff5d" fill-opacity="1"><g transform="translate(250.689837, 220.249896)"><g><path d="M 5.125 0.15625 C 4.195312 0.15625 3.398438 -0.046875 2.734375 -0.453125 C 2.066406 -0.859375 1.546875 -1.425781 1.171875 -2.15625 C 0.804688 -2.882812 0.625 -3.734375 0.625 -4.703125 C 0.625 -5.660156 0.804688 -6.503906 1.171875 -7.234375 C 1.546875 -7.960938 2.066406 -8.53125 2.734375 -8.9375 C 3.398438 -9.351562 4.195312 -9.5625 5.125 -9.5625 C 6.195312 -9.5625 7.070312 -9.300781 7.75 -8.78125 C 8.425781 -8.269531 8.859375 -7.554688 9.046875 -6.640625 L 7.796875 -6.640625 C 7.648438 -7.222656 7.351562 -7.691406 6.90625 -8.046875 C 6.46875 -8.398438 5.875 -8.578125 5.125 -8.578125 C 4.445312 -8.578125 3.859375 -8.421875 3.359375 -8.109375 C 2.859375 -7.796875 2.46875 -7.347656 2.1875 -6.765625 C 1.914062 -6.191406 1.78125 -5.503906 1.78125 -4.703125 C 1.78125 -3.898438 1.914062 -3.207031 2.1875 -2.625 C 2.46875 -2.050781 2.859375 -1.609375 3.359375 -1.296875 C 3.859375 -0.984375 4.445312 -0.828125 5.125 -0.828125 C 5.875 -0.828125 6.46875 -1 6.90625 -1.34375 C 7.351562 -1.695312 7.648438 -2.160156 7.796875 -2.734375 L 9.046875 -2.734375 C 8.859375 -1.828125 8.425781 -1.117188 7.75 -0.609375 C 7.070312 -0.0976562 6.195312 0.15625 5.125 0.15625 Z M 5.125 0.15625 "/></g></g></g><g fill="#d1ff5d" fill-opacity="1"><g transform="translate(270.103458, 220.249896)"><g><path d="M 0.40625 0 L 3.875 -9.40625 L 5.0625 -9.40625 L 8.515625 0 L 7.328125 0 L 6.46875 -2.421875 L 2.453125 -2.421875 L 1.578125 0 Z M 2.796875 -3.328125 L 6.125 -3.328125 L 4.46875 -7.984375 Z M 2.796875 -3.328125 "/></g></g></g><g fill="#d1ff5d" fill-opacity="1"><g transform="translate(288.764992, 220.249896)"><g><path d="M 1 0 L 1 -9.40625 L 4.03125 -9.40625 C 4.769531 -9.40625 5.367188 -9.285156 5.828125 -9.046875 C 6.296875 -8.804688 6.640625 -8.472656 6.859375 -8.046875 C 7.085938 -7.628906 7.203125 -7.164062 7.203125 -6.65625 C 7.203125 -6.0625 7.039062 -5.523438 6.71875 -5.046875 C 6.40625 -4.578125 5.910156 -4.242188 5.234375 -4.046875 L 7.296875 0 L 5.96875 0 L 4.0625 -3.890625 L 2.125 -3.890625 L 2.125 0 Z M 2.125 -4.765625 L 3.953125 -4.765625 C 4.679688 -4.765625 5.207031 -4.9375 5.53125 -5.28125 C 5.863281 -5.632812 6.03125 -6.085938 6.03125 -6.640625 C 6.03125 -7.191406 5.863281 -7.628906 5.53125 -7.953125 C 5.207031 -8.285156 4.675781 -8.453125 3.9375 -8.453125 L 2.125 -8.453125 Z M 2.125 -4.765625 "/></g></g></g><g fill="#d1ff5d" fill-opacity="1"><g transform="translate(306.472995, 220.249896)"><g><path d="M 1 0 L 1 -9.40625 L 6.8125 -9.40625 L 6.8125 -8.484375 L 2.125 -8.484375 L 2.125 -5.203125 L 6.40625 -5.203125 L 6.40625 -4.28125 L 2.125 -4.28125 L 2.125 -0.921875 L 6.8125 -0.921875 L 6.8125 0 Z M 1 0 "/></g></g></g></svg>