<svg xmlns="http://www.w3.org/2000/svg" xmlns:xlink="http://www.w3.org/1999/xlink" width="1280" zoomAndPan="magnify" viewBox="0 0 960 540.000001" height="720" preserveAspectRatio="xMidYMid meet" version="1.0"><defs><g/><clipPath id="d123a759d4"><path d="M 518.003906 155.835938 L 582.777344 155.835938 L 582.777344 220.605469 L 518.003906 220.605469 Z M 518.003906 155.835938 " clip-rule="nonzero"/></clipPath><clipPath id="b4c7acca55"><path d="M 550.390625 155.835938 C 532.503906 155.835938 518.003906 170.332031 518.003906 188.21875 C 518.003906 206.105469 532.503906 220.605469 550.390625 220.605469 C 568.277344 220.605469 582.777344 206.105469 582.777344 188.21875 C 582.777344 170.332031 568.277344 155.835938 550.390625 155.835938 Z M 550.390625 155.835938 " clip-rule="nonzero"/></clipPath><clipPath id="b2d244668d"><path d="M 529.917969 164.613281 L 571 164.613281 L 571 205.785156 L 529.917969 205.785156 Z M 529.917969 164.613281 " clip-rule="nonzero"/></clipPath></defs><g fill="#0086c4" fill-opacity="1"><g transform="translate(131.467836, 324.752117)"><g><path d="M 136.078125 0 L 128.921875 -89.671875 L 128 -89.671875 L 97.015625 -0.921875 L 76.46875 -0.921875 L 45.484375 -89.671875 L 44.5625 -89.671875 L 37.40625 0 L 2.9375 0 L 16.5 -151.296875 L 53.1875 -151.296875 L 86.75 -64 L 120.296875 -151.296875 L 156.984375 -151.296875 L 170.546875 0 Z M 136.078125 0 "/></g></g></g><g fill="#0086c4" fill-opacity="1"><g transform="translate(298.709023, 324.752117)"><g><path d="M 106.1875 -42.546875 L 37.96875 -42.546875 C 37.96875 -35.941406 40.101562 -31.050781 44.375 -27.875 C 48.65625 -24.695312 53.300781 -23.109375 58.3125 -23.109375 C 63.570312 -23.109375 67.726562 -23.8125 70.78125 -25.21875 C 73.84375 -26.625 77.328125 -29.40625 81.234375 -33.5625 L 104.71875 -21.828125 C 94.9375 -5.441406 78.675781 2.75 55.9375 2.75 C 41.75 2.75 29.582031 -2.109375 19.4375 -11.828125 C 9.289062 -21.546875 4.21875 -33.25 4.21875 -46.9375 C 4.21875 -60.632812 9.289062 -72.375 19.4375 -82.15625 C 29.582031 -91.9375 41.75 -96.828125 55.9375 -96.828125 C 70.851562 -96.828125 82.984375 -92.515625 92.328125 -83.890625 C 101.679688 -75.273438 106.359375 -62.960938 106.359375 -46.953125 C 106.359375 -44.742188 106.300781 -43.273438 106.1875 -42.546875 Z M 38.875 -60.515625 L 74.640625 -60.515625 C 73.910156 -65.410156 71.984375 -69.171875 68.859375 -71.796875 C 65.742188 -74.421875 61.738281 -75.734375 56.84375 -75.734375 C 51.46875 -75.734375 47.191406 -74.328125 44.015625 -71.515625 C 40.835938 -68.703125 39.125 -65.035156 38.875 -60.515625 Z M 38.875 -60.515625 "/></g></g></g><g fill="#0086c4" fill-opacity="1"><g transform="translate(403.050932, 324.752117)"><g><path d="M 17.421875 -11.640625 C 8.617188 -21.242188 4.21875 -33.015625 4.21875 -46.953125 C 4.21875 -60.890625 8.617188 -72.6875 17.421875 -82.34375 C 26.222656 -92 37.410156 -96.828125 50.984375 -96.828125 C 63.453125 -96.828125 73.722656 -92.914062 81.796875 -85.09375 L 81.796875 -157.71875 L 114.25 -157.71875 L 114.25 0 L 82.15625 0 L 82.15625 -10.640625 L 81.796875 -10.640625 C 73.722656 -1.710938 63.453125 2.75 50.984375 2.75 C 37.410156 2.75 26.222656 -2.046875 17.421875 -11.640625 Z M 45.015625 -62.90625 C 40.804688 -58.75 38.703125 -53.429688 38.703125 -46.953125 C 38.703125 -40.472656 40.71875 -35.179688 44.75 -31.078125 C 48.78125 -26.984375 54.097656 -24.9375 60.703125 -24.9375 C 67.054688 -24.9375 72.28125 -27.015625 76.375 -31.171875 C 80.476562 -35.328125 82.53125 -40.585938 82.53125 -46.953125 C 82.53125 -53.429688 80.421875 -58.75 76.203125 -62.90625 C 71.984375 -67.0625 66.816406 -69.140625 60.703125 -69.140625 C 54.460938 -69.140625 49.234375 -67.0625 45.015625 -62.90625 Z M 45.015625 -62.90625 "/></g></g></g><g fill="#0086c4" fill-opacity="1"><g transform="translate(522.06322, 324.752117)"><g><path d="M 14.125 -146.53125 C 17.914062 -150.320312 22.4375 -152.21875 27.6875 -152.21875 C 32.945312 -152.21875 37.472656 -150.320312 41.265625 -146.53125 C 45.054688 -142.738281 46.953125 -138.210938 46.953125 -132.953125 C 46.953125 -127.703125 45.054688 -123.179688 41.265625 -119.390625 C 37.472656 -115.597656 32.945312 -113.703125 27.6875 -113.703125 C 22.4375 -113.703125 17.914062 -115.597656 14.125 -119.390625 C 10.332031 -123.179688 8.4375 -127.703125 8.4375 -132.953125 C 8.4375 -138.210938 10.332031 -142.738281 14.125 -146.53125 Z M 11 -94.078125 L 11 0 L 43.46875 0 L 43.46875 -94.078125 Z M 11 -94.078125 "/></g></g></g><g fill="#0086c4" fill-opacity="1"><g transform="translate(571.207857, 324.752117)"><g><path d="M 61.0625 -70.234375 C 54.957031 -70.234375 49.703125 -67.972656 45.296875 -63.453125 C 40.898438 -58.929688 38.703125 -53.488281 38.703125 -47.125 C 38.703125 -40.644531 40.898438 -35.144531 45.296875 -30.625 C 49.703125 -26.101562 54.957031 -23.84375 61.0625 -23.84375 C 64 -23.84375 66.78125 -24.207031 69.40625 -24.9375 C 72.039062 -25.675781 73.96875 -26.410156 75.1875 -27.140625 L 76.84375 -28.234375 L 87.84375 -5.6875 C 86.988281 -5.070312 85.796875 -4.304688 84.265625 -3.390625 C 82.734375 -2.472656 79.25 -1.222656 73.8125 0.359375 C 68.375 1.953125 62.535156 2.75 56.296875 2.75 C 42.484375 2.75 30.347656 -2.109375 19.890625 -11.828125 C 9.441406 -21.546875 4.21875 -33.191406 4.21875 -46.765625 C 4.21875 -60.453125 9.441406 -72.21875 19.890625 -82.0625 C 30.347656 -91.90625 42.484375 -96.828125 56.296875 -96.828125 C 62.535156 -96.828125 68.28125 -96.09375 73.53125 -94.625 C 78.789062 -93.15625 82.519531 -91.691406 84.71875 -90.234375 L 87.84375 -88.03125 L 76.84375 -65.84375 C 72.800781 -68.769531 67.539062 -70.234375 61.0625 -70.234375 Z M 61.0625 -70.234375 "/></g></g></g><g fill="#0086c4" fill-opacity="1"><g transform="translate(655.011253, 324.752117)"><g><path d="M 17.421875 -11.640625 C 8.617188 -21.242188 4.21875 -33.015625 4.21875 -46.953125 C 4.21875 -60.890625 8.617188 -72.6875 17.421875 -82.34375 C 26.222656 -92 37.410156 -96.828125 50.984375 -96.828125 C 63.453125 -96.828125 73.722656 -92.914062 81.796875 -85.09375 L 81.796875 -94.078125 L 114.25 -94.078125 L 114.25 0 L 82.15625 0 L 82.15625 -10.640625 L 81.796875 -10.640625 C 73.722656 -1.710938 63.453125 2.75 50.984375 2.75 C 37.410156 2.75 26.222656 -2.046875 17.421875 -11.640625 Z M 45.015625 -62.90625 C 40.804688 -58.75 38.703125 -53.429688 38.703125 -46.953125 C 38.703125 -40.472656 40.71875 -35.179688 44.75 -31.078125 C 48.78125 -26.984375 54.097656 -24.9375 60.703125 -24.9375 C 67.054688 -24.9375 72.28125 -27.015625 76.375 -31.171875 C 80.476562 -35.328125 82.53125 -40.585938 82.53125 -46.953125 C 82.53125 -53.429688 80.421875 -58.75 76.203125 -62.90625 C 71.984375 -67.0625 66.816406 -69.140625 60.703125 -69.140625 C 54.460938 -69.140625 49.234375 -67.0625 45.015625 -62.90625 Z M 45.015625 -62.90625 "/></g></g></g><g fill="#0086c4" fill-opacity="1"><g transform="translate(774.023563, 324.752117)"><g><path d="M 11 0 L 11 -157.71875 L 43.46875 -157.71875 L 43.46875 0 Z M 11 0 "/></g></g></g><g clip-path="url(#d123a759d4)"><g clip-path="url(#b4c7acca55)"><path fill="#ffffff" d="M 518.003906 155.835938 L 582.777344 155.835938 L 582.777344 220.605469 L 518.003906 220.605469 Z M 518.003906 155.835938 " fill-opacity="1" fill-rule="nonzero"/></g></g><g clip-path="url(#b2d244668d)"><path fill="#0086c4" d="M 570.855469 185.082031 C 570.855469 196.433594 561.738281 205.550781 550.386719 205.550781 C 539.035156 205.550781 529.917969 196.433594 529.917969 185.082031 C 529.917969 173.730469 539.035156 164.613281 550.386719 164.613281 C 561.738281 164.613281 570.855469 173.730469 570.855469 185.082031 Z M 563.414062 180.335938 L 555.132812 180.335938 L 555.132812 172.054688 L 545.546875 172.054688 L 545.546875 180.335938 L 537.265625 180.335938 L 537.265625 189.921875 L 545.546875 189.921875 L 545.546875 198.109375 L 555.132812 198.109375 L 555.132812 189.828125 L 563.414062 189.828125 Z M 563.414062 180.335938 " fill-opacity="1" fill-rule="nonzero"/></g><g fill="#0086c4" fill-opacity="1"><g transform="translate(131.45826, 361.088072)"><g><path d="M 27.03125 -27.078125 L 27.03125 0 L 24.203125 0 L 24.203125 -12.484375 L 7.265625 -12.484375 L 7.265625 0 L 4.40625 0 L 4.40625 -27.078125 L 7.265625 -27.078125 L 7.265625 -15 L 24.203125 -15 L 24.203125 -27.078125 Z M 27.03125 -27.078125 "/></g></g></g><g fill="#0086c4" fill-opacity="1"><g transform="translate(170.66948, 361.088072)"><g><path d="M 21.546875 -9.3125 L 4.53125 -9.3125 C 4.675781 -7.207031 5.484375 -5.503906 6.953125 -4.203125 C 8.429688 -2.898438 10.289062 -2.25 12.53125 -2.25 C 13.789062 -2.25 14.945312 -2.472656 16 -2.921875 C 17.0625 -3.367188 17.976562 -4.03125 18.75 -4.90625 L 20.296875 -3.125 C 19.398438 -2.050781 18.273438 -1.226562 16.921875 -0.65625 C 15.566406 -0.09375 14.078125 0.1875 12.453125 0.1875 C 10.359375 0.1875 8.503906 -0.253906 6.890625 -1.140625 C 5.285156 -2.023438 4.03125 -3.253906 3.125 -4.828125 C 2.226562 -6.398438 1.78125 -8.179688 1.78125 -10.171875 C 1.78125 -12.160156 2.210938 -13.9375 3.078125 -15.5 C 3.941406 -17.070312 5.125 -18.296875 6.625 -19.171875 C 8.132812 -20.054688 9.832031 -20.5 11.71875 -20.5 C 13.601562 -20.5 15.289062 -20.054688 16.78125 -19.171875 C 18.28125 -18.296875 19.453125 -17.078125 20.296875 -15.515625 C 21.148438 -13.960938 21.578125 -12.179688 21.578125 -10.171875 Z M 11.71875 -18.140625 C 9.757812 -18.140625 8.113281 -17.515625 6.78125 -16.265625 C 5.457031 -15.015625 4.707031 -13.382812 4.53125 -11.375 L 18.953125 -11.375 C 18.765625 -13.382812 18.007812 -15.015625 16.6875 -16.265625 C 15.363281 -17.515625 13.707031 -18.140625 11.71875 -18.140625 Z M 11.71875 -18.140625 "/></g></g></g><g fill="#0086c4" fill-opacity="1"><g transform="translate(201.799611, 361.088072)"><g><path d="M 10.9375 -20.5 C 13.59375 -20.5 15.628906 -19.832031 17.046875 -18.5 C 18.472656 -17.175781 19.1875 -15.210938 19.1875 -12.609375 L 19.1875 0 L 16.546875 0 L 16.546875 -3.171875 C 15.929688 -2.109375 15.023438 -1.28125 13.828125 -0.6875 C 12.628906 -0.101562 11.203125 0.1875 9.546875 0.1875 C 7.285156 0.1875 5.484375 -0.351562 4.140625 -1.4375 C 2.796875 -2.519531 2.125 -3.945312 2.125 -5.71875 C 2.125 -7.445312 2.75 -8.835938 4 -9.890625 C 5.25 -10.953125 7.242188 -11.484375 9.984375 -11.484375 L 16.4375 -11.484375 L 16.4375 -12.71875 C 16.4375 -14.476562 15.945312 -15.8125 14.96875 -16.71875 C 13.988281 -17.632812 12.554688 -18.09375 10.671875 -18.09375 C 9.378906 -18.09375 8.140625 -17.878906 6.953125 -17.453125 C 5.773438 -17.035156 4.757812 -16.453125 3.90625 -15.703125 L 2.671875 -17.75 C 3.703125 -18.625 4.9375 -19.300781 6.375 -19.78125 C 7.820312 -20.257812 9.34375 -20.5 10.9375 -20.5 Z M 9.984375 -1.96875 C 11.523438 -1.96875 12.847656 -2.320312 13.953125 -3.03125 C 15.066406 -3.738281 15.894531 -4.765625 16.4375 -6.109375 L 16.4375 -9.4375 L 10.0625 -9.4375 C 6.570312 -9.4375 4.828125 -8.222656 4.828125 -5.796875 C 4.828125 -4.609375 5.28125 -3.671875 6.1875 -2.984375 C 7.09375 -2.304688 8.359375 -1.96875 9.984375 -1.96875 Z M 9.984375 -1.96875 "/></g></g></g><g fill="#0086c4" fill-opacity="1"><g transform="translate(232.388418, 361.088072)"><g><path d="M 3.828125 -28.6875 L 6.578125 -28.6875 L 6.578125 0 L 3.828125 0 Z M 3.828125 -28.6875 "/></g></g></g><g fill="#0086c4" fill-opacity="1"><g transform="translate(250.565624, 361.088072)"><g><path d="M 14.546875 -1.234375 C 14.023438 -0.773438 13.382812 -0.421875 12.625 -0.171875 C 11.863281 0.0664062 11.070312 0.1875 10.25 0.1875 C 8.34375 0.1875 6.875 -0.328125 5.84375 -1.359375 C 4.8125 -2.390625 4.296875 -3.84375 4.296875 -5.71875 L 4.296875 -18.015625 L 0.65625 -18.015625 L 0.65625 -20.34375 L 4.296875 -20.34375 L 4.296875 -24.78125 L 7.03125 -24.78125 L 7.03125 -20.34375 L 13.21875 -20.34375 L 13.21875 -18.015625 L 7.03125 -18.015625 L 7.03125 -5.875 C 7.03125 -4.664062 7.332031 -3.742188 7.9375 -3.109375 C 8.550781 -2.484375 9.425781 -2.171875 10.5625 -2.171875 C 11.125 -2.171875 11.671875 -2.257812 12.203125 -2.4375 C 12.734375 -2.613281 13.191406 -2.867188 13.578125 -3.203125 Z M 14.546875 -1.234375 "/></g></g></g><g fill="#0086c4" fill-opacity="1"><g transform="translate(274.039989, 361.088072)"><g><path d="M 14.1875 -20.5 C 16.738281 -20.5 18.769531 -19.753906 20.28125 -18.265625 C 21.789062 -16.785156 22.546875 -14.628906 22.546875 -11.796875 L 22.546875 0 L 19.796875 0 L 19.796875 -11.53125 C 19.796875 -13.644531 19.265625 -15.253906 18.203125 -16.359375 C 17.148438 -17.460938 15.644531 -18.015625 13.6875 -18.015625 C 11.5 -18.015625 9.765625 -17.363281 8.484375 -16.0625 C 7.210938 -14.757812 6.578125 -12.960938 6.578125 -10.671875 L 6.578125 0 L 3.828125 0 L 3.828125 -28.6875 L 6.578125 -28.6875 L 6.578125 -16.78125 C 7.328125 -17.96875 8.359375 -18.882812 9.671875 -19.53125 C 10.984375 -20.175781 12.488281 -20.5 14.1875 -20.5 Z M 14.1875 -20.5 "/></g></g></g><g fill="#0086c4" fill-opacity="1"><g transform="translate(307.992693, 361.088072)"><g/></g></g><g fill="#0086c4" fill-opacity="1"><g transform="translate(325.89924, 361.088072)"><g><path d="M 16.171875 0.234375 C 13.484375 0.234375 11.0625 -0.359375 8.90625 -1.546875 C 6.757812 -2.734375 5.070312 -4.375 3.84375 -6.46875 C 2.625 -8.570312 2.015625 -10.925781 2.015625 -13.53125 C 2.015625 -16.132812 2.625 -18.488281 3.84375 -20.59375 C 5.070312 -22.695312 6.769531 -24.335938 8.9375 -25.515625 C 11.101562 -26.703125 13.523438 -27.296875 16.203125 -27.296875 C 18.210938 -27.296875 20.066406 -26.960938 21.765625 -26.296875 C 23.472656 -25.628906 24.921875 -24.648438 26.109375 -23.359375 L 24.28125 -21.546875 C 22.164062 -23.679688 19.5 -24.75 16.28125 -24.75 C 14.144531 -24.75 12.195312 -24.257812 10.4375 -23.28125 C 8.6875 -22.300781 7.3125 -20.957031 6.3125 -19.25 C 5.320312 -17.550781 4.828125 -15.644531 4.828125 -13.53125 C 4.828125 -11.414062 5.320312 -9.507812 6.3125 -7.8125 C 7.3125 -6.113281 8.6875 -4.773438 10.4375 -3.796875 C 12.195312 -2.816406 14.144531 -2.328125 16.28125 -2.328125 C 19.53125 -2.328125 22.195312 -3.40625 24.28125 -5.5625 L 26.109375 -3.75 C 24.921875 -2.457031 23.46875 -1.46875 21.75 -0.78125 C 20.039062 -0.101562 18.179688 0.234375 16.171875 0.234375 Z M 16.171875 0.234375 "/></g></g></g><g fill="#0086c4" fill-opacity="1"><g transform="translate(361.475898, 361.088072)"><g><path d="M 21.546875 -9.3125 L 4.53125 -9.3125 C 4.675781 -7.207031 5.484375 -5.503906 6.953125 -4.203125 C 8.429688 -2.898438 10.289062 -2.25 12.53125 -2.25 C 13.789062 -2.25 14.945312 -2.472656 16 -2.921875 C 17.0625 -3.367188 17.976562 -4.03125 18.75 -4.90625 L 20.296875 -3.125 C 19.398438 -2.050781 18.273438 -1.226562 16.921875 -0.65625 C 15.566406 -0.09375 14.078125 0.1875 12.453125 0.1875 C 10.359375 0.1875 8.503906 -0.253906 6.890625 -1.140625 C 5.285156 -2.023438 4.03125 -3.253906 3.125 -4.828125 C 2.226562 -6.398438 1.78125 -8.179688 1.78125 -10.171875 C 1.78125 -12.160156 2.210938 -13.9375 3.078125 -15.5 C 3.941406 -17.070312 5.125 -18.296875 6.625 -19.171875 C 8.132812 -20.054688 9.832031 -20.5 11.71875 -20.5 C 13.601562 -20.5 15.289062 -20.054688 16.78125 -19.171875 C 18.28125 -18.296875 19.453125 -17.078125 20.296875 -15.515625 C 21.148438 -13.960938 21.578125 -12.179688 21.578125 -10.171875 Z M 11.71875 -18.140625 C 9.757812 -18.140625 8.113281 -17.515625 6.78125 -16.265625 C 5.457031 -15.015625 4.707031 -13.382812 4.53125 -11.375 L 18.953125 -11.375 C 18.765625 -13.382812 18.007812 -15.015625 16.6875 -16.265625 C 15.363281 -17.515625 13.707031 -18.140625 11.71875 -18.140625 Z M 11.71875 -18.140625 "/></g></g></g><g fill="#0086c4" fill-opacity="1"><g transform="translate(392.606035, 361.088072)"><g><path d="M 14.1875 -20.5 C 16.738281 -20.5 18.769531 -19.753906 20.28125 -18.265625 C 21.789062 -16.785156 22.546875 -14.628906 22.546875 -11.796875 L 22.546875 0 L 19.796875 0 L 19.796875 -11.53125 C 19.796875 -13.644531 19.265625 -15.253906 18.203125 -16.359375 C 17.148438 -17.460938 15.644531 -18.015625 13.6875 -18.015625 C 11.5 -18.015625 9.765625 -17.363281 8.484375 -16.0625 C 7.210938 -14.757812 6.578125 -12.960938 6.578125 -10.671875 L 6.578125 0 L 3.828125 0 L 3.828125 -20.34375 L 6.453125 -20.34375 L 6.453125 -16.59375 C 7.203125 -17.832031 8.238281 -18.789062 9.5625 -19.46875 C 10.894531 -20.15625 12.4375 -20.5 14.1875 -20.5 Z M 14.1875 -20.5 "/></g></g></g><g fill="#0086c4" fill-opacity="1"><g transform="translate(426.558739, 361.088072)"><g><path d="M 14.546875 -1.234375 C 14.023438 -0.773438 13.382812 -0.421875 12.625 -0.171875 C 11.863281 0.0664062 11.070312 0.1875 10.25 0.1875 C 8.34375 0.1875 6.875 -0.328125 5.84375 -1.359375 C 4.8125 -2.390625 4.296875 -3.84375 4.296875 -5.71875 L 4.296875 -18.015625 L 0.65625 -18.015625 L 0.65625 -20.34375 L 4.296875 -20.34375 L 4.296875 -24.78125 L 7.03125 -24.78125 L 7.03125 -20.34375 L 13.21875 -20.34375 L 13.21875 -18.015625 L 7.03125 -18.015625 L 7.03125 -5.875 C 7.03125 -4.664062 7.332031 -3.742188 7.9375 -3.109375 C 8.550781 -2.484375 9.425781 -2.171875 10.5625 -2.171875 C 11.125 -2.171875 11.671875 -2.257812 12.203125 -2.4375 C 12.734375 -2.613281 13.191406 -2.867188 13.578125 -3.203125 Z M 14.546875 -1.234375 "/></g></g></g><g fill="#0086c4" fill-opacity="1"><g transform="translate(450.033104, 361.088072)"><g><path d="M 21.546875 -9.3125 L 4.53125 -9.3125 C 4.675781 -7.207031 5.484375 -5.503906 6.953125 -4.203125 C 8.429688 -2.898438 10.289062 -2.25 12.53125 -2.25 C 13.789062 -2.25 14.945312 -2.472656 16 -2.921875 C 17.0625 -3.367188 17.976562 -4.03125 18.75 -4.90625 L 20.296875 -3.125 C 19.398438 -2.050781 18.273438 -1.226562 16.921875 -0.65625 C 15.566406 -0.09375 14.078125 0.1875 12.453125 0.1875 C 10.359375 0.1875 8.503906 -0.253906 6.890625 -1.140625 C 5.285156 -2.023438 4.03125 -3.253906 3.125 -4.828125 C 2.226562 -6.398438 1.78125 -8.179688 1.78125 -10.171875 C 1.78125 -12.160156 2.210938 -13.9375 3.078125 -15.5 C 3.941406 -17.070312 5.125 -18.296875 6.625 -19.171875 C 8.132812 -20.054688 9.832031 -20.5 11.71875 -20.5 C 13.601562 -20.5 15.289062 -20.054688 16.78125 -19.171875 C 18.28125 -18.296875 19.453125 -17.078125 20.296875 -15.515625 C 21.148438 -13.960938 21.578125 -12.179688 21.578125 -10.171875 Z M 11.71875 -18.140625 C 9.757812 -18.140625 8.113281 -17.515625 6.78125 -16.265625 C 5.457031 -15.015625 4.707031 -13.382812 4.53125 -11.375 L 18.953125 -11.375 C 18.765625 -13.382812 18.007812 -15.015625 16.6875 -16.265625 C 15.363281 -17.515625 13.707031 -18.140625 11.71875 -18.140625 Z M 11.71875 -18.140625 "/></g></g></g><g fill="#0086c4" fill-opacity="1"><g transform="translate(481.16324, 361.088072)"><g><path d="M 6.453125 -16.359375 C 7.097656 -17.722656 8.054688 -18.753906 9.328125 -19.453125 C 10.609375 -20.148438 12.191406 -20.5 14.078125 -20.5 L 14.078125 -17.828125 L 13.421875 -17.859375 C 11.273438 -17.859375 9.597656 -17.203125 8.390625 -15.890625 C 7.179688 -14.578125 6.578125 -12.734375 6.578125 -10.359375 L 6.578125 0 L 3.828125 0 L 3.828125 -20.34375 L 6.453125 -20.34375 Z M 6.453125 -16.359375 "/></g></g></g><path stroke-linecap="butt" transform="matrix(0.748591, -0.00577791, 0.00577791, 0.748591, 518.006101, 358.646402)" fill="none" stroke-linejoin="miter" d="M 0.00114268 1.500332 L 402.188843 1.499779 " stroke="#0086c4" stroke-width="3" stroke-opacity="1" stroke-miterlimit="4"/></svg>