<svg xmlns="http://www.w3.org/2000/svg" xmlns:xlink="http://www.w3.org/1999/xlink" width="500" zoomAndPan="magnify" viewBox="0 0 375 374.999991" height="500" preserveAspectRatio="xMidYMid meet" version="1.0"><defs><g/><clipPath id="00e4e44e4d"><path d="M 206.3125 131.242188 L 238.367188 131.242188 L 238.367188 163.300781 L 206.3125 163.300781 Z M 206.3125 131.242188 " clip-rule="nonzero"/></clipPath><clipPath id="0b8459bbf0"><path d="M 222.339844 131.242188 C 213.488281 131.242188 206.3125 138.417969 206.3125 147.269531 C 206.3125 156.125 213.488281 163.300781 222.339844 163.300781 C 231.191406 163.300781 238.367188 156.125 238.367188 147.269531 C 238.367188 138.417969 231.191406 131.242188 222.339844 131.242188 Z M 222.339844 131.242188 " clip-rule="nonzero"/></clipPath><clipPath id="74abcaf158"><path d="M 212.207031 135.585938 L 232.457031 135.585938 L 232.457031 155.835938 L 212.207031 155.835938 Z M 212.207031 135.585938 " clip-rule="nonzero"/></clipPath></defs><g fill="#00bf63" fill-opacity="1"><g transform="translate(14.998099, 214.416416)"><g><path d="M 67.34375 0 L 63.8125 -44.390625 L 63.359375 -44.390625 L 48.015625 -0.453125 L 37.84375 -0.453125 L 22.515625 -44.390625 L 22.0625 -44.390625 L 18.515625 0 L 1.453125 0 L 8.171875 -74.875 L 26.328125 -74.875 L 42.9375 -31.671875 L 59.546875 -74.875 L 77.703125 -74.875 L 84.40625 0 Z M 67.34375 0 "/></g></g></g><g fill="#00bf63" fill-opacity="1"><g transform="translate(97.772157, 214.416416)"><g><path d="M 52.546875 -21.0625 L 18.78125 -21.0625 C 18.78125 -17.789062 19.835938 -15.367188 21.953125 -13.796875 C 24.078125 -12.222656 26.378906 -11.4375 28.859375 -11.4375 C 31.460938 -11.4375 33.519531 -11.785156 35.03125 -12.484375 C 36.550781 -13.179688 38.273438 -14.554688 40.203125 -16.609375 L 51.828125 -10.796875 C 46.984375 -2.691406 38.9375 1.359375 27.6875 1.359375 C 20.664062 1.359375 14.644531 -1.039062 9.625 -5.84375 C 4.601562 -10.65625 2.09375 -16.453125 2.09375 -23.234375 C 2.09375 -30.015625 4.601562 -35.820312 9.625 -40.65625 C 14.644531 -45.5 20.664062 -47.921875 27.6875 -47.921875 C 35.0625 -47.921875 41.0625 -45.785156 45.6875 -41.515625 C 50.320312 -37.253906 52.640625 -31.160156 52.640625 -23.234375 C 52.640625 -22.148438 52.609375 -21.425781 52.546875 -21.0625 Z M 19.25 -29.953125 L 36.9375 -29.953125 C 36.570312 -32.367188 35.617188 -34.226562 34.078125 -35.53125 C 32.535156 -36.832031 30.554688 -37.484375 28.140625 -37.484375 C 25.472656 -37.484375 23.351562 -36.785156 21.78125 -35.390625 C 20.207031 -34.003906 19.363281 -32.191406 19.25 -29.953125 Z M 19.25 -29.953125 "/></g></g></g><g fill="#00bf63" fill-opacity="1"><g transform="translate(149.414968, 214.416416)"><g><path d="M 8.625 -5.765625 C 4.269531 -10.515625 2.09375 -16.335938 2.09375 -23.234375 C 2.09375 -30.128906 4.269531 -35.96875 8.625 -40.75 C 12.976562 -45.53125 18.515625 -47.921875 25.234375 -47.921875 C 31.398438 -47.921875 36.484375 -45.984375 40.484375 -42.109375 L 40.484375 -78.0625 L 56.546875 -78.0625 L 56.546875 0 L 40.65625 0 L 40.65625 -5.265625 L 40.484375 -5.265625 C 36.484375 -0.847656 31.398438 1.359375 25.234375 1.359375 C 18.515625 1.359375 12.976562 -1.015625 8.625 -5.765625 Z M 22.28125 -31.125 C 20.195312 -29.070312 19.15625 -26.441406 19.15625 -23.234375 C 19.15625 -20.023438 20.148438 -17.40625 22.140625 -15.375 C 24.140625 -13.351562 26.773438 -12.34375 30.046875 -12.34375 C 33.191406 -12.34375 35.773438 -13.367188 37.796875 -15.421875 C 39.828125 -17.484375 40.84375 -20.085938 40.84375 -23.234375 C 40.84375 -26.441406 39.796875 -29.070312 37.703125 -31.125 C 35.617188 -33.1875 33.066406 -34.21875 30.046875 -34.21875 C 26.960938 -34.21875 24.375 -33.1875 22.28125 -31.125 Z M 22.28125 -31.125 "/></g></g></g><g fill="#00bf63" fill-opacity="1"><g transform="translate(208.318711, 214.416416)"><g><path d="M 6.984375 -72.515625 C 8.859375 -74.390625 11.097656 -75.328125 13.703125 -75.328125 C 16.304688 -75.328125 18.546875 -74.390625 20.421875 -72.515625 C 22.296875 -70.640625 23.234375 -68.398438 23.234375 -65.796875 C 23.234375 -63.203125 22.296875 -60.96875 20.421875 -59.09375 C 18.546875 -57.21875 16.304688 -56.28125 13.703125 -56.28125 C 11.097656 -56.28125 8.859375 -57.21875 6.984375 -59.09375 C 5.109375 -60.96875 4.171875 -63.203125 4.171875 -65.796875 C 4.171875 -68.398438 5.109375 -70.640625 6.984375 -72.515625 Z M 5.453125 -46.5625 L 5.453125 0 L 21.515625 0 L 21.515625 -46.5625 Z M 5.453125 -46.5625 "/></g></g></g><g fill="#00bf63" fill-opacity="1"><g transform="translate(232.642257, 214.416416)"><g><path d="M 30.21875 -34.765625 C 27.195312 -34.765625 24.597656 -33.644531 22.421875 -31.40625 C 20.242188 -29.164062 19.15625 -26.472656 19.15625 -23.328125 C 19.15625 -20.117188 20.242188 -17.394531 22.421875 -15.15625 C 24.597656 -12.914062 27.195312 -11.796875 30.21875 -11.796875 C 31.675781 -11.796875 33.054688 -11.976562 34.359375 -12.34375 C 35.660156 -12.707031 36.613281 -13.070312 37.21875 -13.4375 L 38.03125 -13.984375 L 43.484375 -2.8125 C 43.054688 -2.507812 42.460938 -2.128906 41.703125 -1.671875 C 40.953125 -1.222656 39.226562 -0.609375 36.53125 0.171875 C 33.84375 0.960938 30.953125 1.359375 27.859375 1.359375 C 21.023438 1.359375 15.019531 -1.039062 9.84375 -5.84375 C 4.675781 -10.65625 2.09375 -16.421875 2.09375 -23.140625 C 2.09375 -29.921875 4.675781 -35.742188 9.84375 -40.609375 C 15.019531 -45.484375 21.023438 -47.921875 27.859375 -47.921875 C 30.953125 -47.921875 33.796875 -47.554688 36.390625 -46.828125 C 38.992188 -46.109375 40.84375 -45.382812 41.9375 -44.65625 L 43.484375 -43.5625 L 38.03125 -32.578125 C 36.03125 -34.035156 33.425781 -34.765625 30.21875 -34.765625 Z M 30.21875 -34.765625 "/></g></g></g><g fill="#00bf63" fill-opacity="1"><g transform="translate(274.119763, 214.416416)"><g><path d="M 8.625 -5.765625 C 4.269531 -10.515625 2.09375 -16.335938 2.09375 -23.234375 C 2.09375 -30.128906 4.269531 -35.96875 8.625 -40.75 C 12.976562 -45.53125 18.515625 -47.921875 25.234375 -47.921875 C 31.398438 -47.921875 36.484375 -45.984375 40.484375 -42.109375 L 40.484375 -46.5625 L 56.546875 -46.5625 L 56.546875 0 L 40.65625 0 L 40.65625 -5.265625 L 40.484375 -5.265625 C 36.484375 -0.847656 31.398438 1.359375 25.234375 1.359375 C 18.515625 1.359375 12.976562 -1.015625 8.625 -5.765625 Z M 22.28125 -31.125 C 20.195312 -29.070312 19.15625 -26.441406 19.15625 -23.234375 C 19.15625 -20.023438 20.148438 -17.40625 22.140625 -15.375 C 24.140625 -13.351562 26.773438 -12.34375 30.046875 -12.34375 C 33.191406 -12.34375 35.773438 -13.367188 37.796875 -15.421875 C 39.828125 -17.484375 40.84375 -20.085938 40.84375 -23.234375 C 40.84375 -26.441406 39.796875 -29.070312 37.703125 -31.125 C 35.617188 -33.1875 33.066406 -34.21875 30.046875 -34.21875 C 26.960938 -34.21875 24.375 -33.1875 22.28125 -31.125 Z M 22.28125 -31.125 "/></g></g></g><g fill="#00bf63" fill-opacity="1"><g transform="translate(333.023506, 214.416416)"><g><path d="M 5.453125 0 L 5.453125 -78.0625 L 21.515625 -78.0625 L 21.515625 0 Z M 5.453125 0 "/></g></g></g><g clip-path="url(#00e4e44e4d)"><g clip-path="url(#0b8459bbf0)"><path fill="#ffffff" d="M 206.3125 131.242188 L 238.367188 131.242188 L 238.367188 163.300781 L 206.3125 163.300781 Z M 206.3125 131.242188 " fill-opacity="1" fill-rule="nonzero"/></g></g><g clip-path="url(#74abcaf158)"><path fill="#00bf63" d="M 232.46875 145.71875 C 232.46875 151.335938 227.953125 155.847656 222.335938 155.847656 C 216.71875 155.847656 212.207031 151.335938 212.207031 145.71875 C 212.207031 140.097656 216.71875 135.585938 222.335938 135.585938 C 227.953125 135.585938 232.46875 140.097656 232.46875 145.71875 Z M 228.785156 143.367188 L 224.683594 143.367188 L 224.683594 139.269531 L 219.941406 139.269531 L 219.941406 143.367188 L 215.84375 143.367188 L 215.84375 148.113281 L 219.941406 148.113281 L 219.941406 152.164062 L 224.683594 152.164062 L 224.683594 148.066406 L 228.785156 148.066406 Z M 228.785156 143.367188 " fill-opacity="1" fill-rule="nonzero"/></g><g fill="#ffffff" fill-opacity="1"><g transform="translate(14.992898, 232.171991)"><g><path d="M 13.375 -13.40625 L 13.375 0 L 11.984375 0 L 11.984375 -6.1875 L 3.59375 -6.1875 L 3.59375 0 L 2.1875 0 L 2.1875 -13.40625 L 3.59375 -13.40625 L 3.59375 -7.421875 L 11.984375 -7.421875 L 11.984375 -13.40625 Z M 13.375 -13.40625 "/></g></g></g><g fill="#ffffff" fill-opacity="1"><g transform="translate(34.399741, 232.171991)"><g><path d="M 10.65625 -4.609375 L 2.234375 -4.609375 C 2.316406 -3.566406 2.71875 -2.722656 3.4375 -2.078125 C 4.164062 -1.429688 5.085938 -1.109375 6.203125 -1.109375 C 6.828125 -1.109375 7.398438 -1.21875 7.921875 -1.4375 C 8.441406 -1.664062 8.894531 -2 9.28125 -2.4375 L 10.046875 -1.546875 C 9.597656 -1.015625 9.039062 -0.609375 8.375 -0.328125 C 7.707031 -0.046875 6.96875 0.09375 6.15625 0.09375 C 5.125 0.09375 4.207031 -0.125 3.40625 -0.5625 C 2.613281 -1 1.992188 -1.609375 1.546875 -2.390625 C 1.097656 -3.171875 0.875 -4.050781 0.875 -5.03125 C 0.875 -6.019531 1.085938 -6.898438 1.515625 -7.671875 C 1.941406 -8.453125 2.53125 -9.054688 3.28125 -9.484375 C 4.03125 -9.921875 4.867188 -10.140625 5.796875 -10.140625 C 6.734375 -10.140625 7.570312 -9.921875 8.3125 -9.484375 C 9.050781 -9.054688 9.628906 -8.457031 10.046875 -7.6875 C 10.472656 -6.914062 10.6875 -6.03125 10.6875 -5.03125 Z M 5.796875 -8.984375 C 4.828125 -8.984375 4.015625 -8.671875 3.359375 -8.046875 C 2.703125 -7.429688 2.328125 -6.625 2.234375 -5.625 L 9.375 -5.625 C 9.289062 -6.625 8.921875 -7.429688 8.265625 -8.046875 C 7.609375 -8.671875 6.785156 -8.984375 5.796875 -8.984375 Z M 5.796875 -8.984375 "/></g></g></g><g fill="#ffffff" fill-opacity="1"><g transform="translate(49.807022, 232.171991)"><g><path d="M 5.421875 -10.140625 C 6.734375 -10.140625 7.738281 -9.8125 8.4375 -9.15625 C 9.144531 -8.5 9.5 -7.523438 9.5 -6.234375 L 9.5 0 L 8.1875 0 L 8.1875 -1.5625 C 7.882812 -1.039062 7.4375 -0.632812 6.84375 -0.34375 C 6.25 -0.0507812 5.546875 0.09375 4.734375 0.09375 C 3.609375 0.09375 2.710938 -0.171875 2.046875 -0.703125 C 1.378906 -1.242188 1.046875 -1.953125 1.046875 -2.828125 C 1.046875 -3.679688 1.351562 -4.367188 1.96875 -4.890625 C 2.59375 -5.421875 3.582031 -5.6875 4.9375 -5.6875 L 8.140625 -5.6875 L 8.140625 -6.296875 C 8.140625 -7.160156 7.894531 -7.816406 7.40625 -8.265625 C 6.925781 -8.722656 6.21875 -8.953125 5.28125 -8.953125 C 4.644531 -8.953125 4.03125 -8.847656 3.4375 -8.640625 C 2.851562 -8.429688 2.351562 -8.140625 1.9375 -7.765625 L 1.328125 -8.78125 C 1.835938 -9.21875 2.445312 -9.550781 3.15625 -9.78125 C 3.875 -10.019531 4.628906 -10.140625 5.421875 -10.140625 Z M 4.9375 -0.96875 C 5.707031 -0.96875 6.363281 -1.144531 6.90625 -1.5 C 7.457031 -1.851562 7.867188 -2.363281 8.140625 -3.03125 L 8.140625 -4.671875 L 4.984375 -4.671875 C 3.253906 -4.671875 2.390625 -4.070312 2.390625 -2.875 C 2.390625 -2.28125 2.613281 -1.8125 3.0625 -1.46875 C 3.507812 -1.132812 4.132812 -0.96875 4.9375 -0.96875 Z M 4.9375 -0.96875 "/></g></g></g><g fill="#ffffff" fill-opacity="1"><g transform="translate(64.946396, 232.171991)"><g><path d="M 1.890625 -14.203125 L 3.25 -14.203125 L 3.25 0 L 1.890625 0 Z M 1.890625 -14.203125 "/></g></g></g><g fill="#ffffff" fill-opacity="1"><g transform="translate(73.942893, 232.171991)"><g><path d="M 7.203125 -0.609375 C 6.941406 -0.378906 6.625 -0.203125 6.25 -0.078125 C 5.875 0.0351562 5.484375 0.09375 5.078125 0.09375 C 4.128906 0.09375 3.398438 -0.160156 2.890625 -0.671875 C 2.378906 -1.179688 2.125 -1.898438 2.125 -2.828125 L 2.125 -8.921875 L 0.328125 -8.921875 L 0.328125 -10.0625 L 2.125 -10.0625 L 2.125 -12.265625 L 3.484375 -12.265625 L 3.484375 -10.0625 L 6.546875 -10.0625 L 6.546875 -8.921875 L 3.484375 -8.921875 L 3.484375 -2.90625 C 3.484375 -2.3125 3.632812 -1.859375 3.9375 -1.546875 C 4.238281 -1.234375 4.664062 -1.078125 5.21875 -1.078125 C 5.5 -1.078125 5.769531 -1.117188 6.03125 -1.203125 C 6.300781 -1.296875 6.53125 -1.425781 6.71875 -1.59375 Z M 7.203125 -0.609375 "/></g></g></g><g fill="#ffffff" fill-opacity="1"><g transform="translate(85.561118, 232.171991)"><g><path d="M 7.03125 -10.140625 C 8.289062 -10.140625 9.289062 -9.769531 10.03125 -9.03125 C 10.78125 -8.300781 11.15625 -7.238281 11.15625 -5.84375 L 11.15625 0 L 9.796875 0 L 9.796875 -5.703125 C 9.796875 -6.753906 9.535156 -7.550781 9.015625 -8.09375 C 8.492188 -8.644531 7.75 -8.921875 6.78125 -8.921875 C 5.695312 -8.921875 4.835938 -8.597656 4.203125 -7.953125 C 3.566406 -7.304688 3.25 -6.414062 3.25 -5.28125 L 3.25 0 L 1.890625 0 L 1.890625 -14.203125 L 3.25 -14.203125 L 3.25 -8.3125 C 3.625 -8.894531 4.132812 -9.34375 4.78125 -9.65625 C 5.4375 -9.976562 6.1875 -10.140625 7.03125 -10.140625 Z M 7.03125 -10.140625 "/></g></g></g><g fill="#ffffff" fill-opacity="1"><g transform="translate(102.36538, 232.171991)"><g/></g></g><g fill="#ffffff" fill-opacity="1"><g transform="translate(111.227919, 232.171991)"><g><path d="M 8 0.109375 C 6.675781 0.109375 5.476562 -0.179688 4.40625 -0.765625 C 3.34375 -1.347656 2.507812 -2.160156 1.90625 -3.203125 C 1.300781 -4.242188 1 -5.410156 1 -6.703125 C 1 -7.984375 1.300781 -9.144531 1.90625 -10.1875 C 2.507812 -11.226562 3.347656 -12.039062 4.421875 -12.625 C 5.492188 -13.21875 6.691406 -13.515625 8.015625 -13.515625 C 9.015625 -13.515625 9.9375 -13.347656 10.78125 -13.015625 C 11.625 -12.679688 12.335938 -12.195312 12.921875 -11.5625 L 12.015625 -10.65625 C 10.972656 -11.71875 9.65625 -12.25 8.0625 -12.25 C 7 -12.25 6.03125 -12.003906 5.15625 -11.515625 C 4.289062 -11.035156 3.613281 -10.375 3.125 -9.53125 C 2.632812 -8.6875 2.390625 -7.742188 2.390625 -6.703125 C 2.390625 -5.648438 2.632812 -4.703125 3.125 -3.859375 C 3.613281 -3.023438 4.289062 -2.363281 5.15625 -1.875 C 6.03125 -1.394531 7 -1.15625 8.0625 -1.15625 C 9.664062 -1.15625 10.984375 -1.6875 12.015625 -2.75 L 12.921875 -1.859375 C 12.335938 -1.222656 11.617188 -0.734375 10.765625 -0.390625 C 9.921875 -0.0546875 9 0.109375 8 0.109375 Z M 8 0.109375 "/></g></g></g><g fill="#ffffff" fill-opacity="1"><g transform="translate(128.835924, 232.171991)"><g><path d="M 10.65625 -4.609375 L 2.234375 -4.609375 C 2.316406 -3.566406 2.71875 -2.722656 3.4375 -2.078125 C 4.164062 -1.429688 5.085938 -1.109375 6.203125 -1.109375 C 6.828125 -1.109375 7.398438 -1.21875 7.921875 -1.4375 C 8.441406 -1.664062 8.894531 -2 9.28125 -2.4375 L 10.046875 -1.546875 C 9.597656 -1.015625 9.039062 -0.609375 8.375 -0.328125 C 7.707031 -0.046875 6.96875 0.09375 6.15625 0.09375 C 5.125 0.09375 4.207031 -0.125 3.40625 -0.5625 C 2.613281 -1 1.992188 -1.609375 1.546875 -2.390625 C 1.097656 -3.171875 0.875 -4.050781 0.875 -5.03125 C 0.875 -6.019531 1.085938 -6.898438 1.515625 -7.671875 C 1.941406 -8.453125 2.53125 -9.054688 3.28125 -9.484375 C 4.03125 -9.921875 4.867188 -10.140625 5.796875 -10.140625 C 6.734375 -10.140625 7.570312 -9.921875 8.3125 -9.484375 C 9.050781 -9.054688 9.628906 -8.457031 10.046875 -7.6875 C 10.472656 -6.914062 10.6875 -6.03125 10.6875 -5.03125 Z M 5.796875 -8.984375 C 4.828125 -8.984375 4.015625 -8.671875 3.359375 -8.046875 C 2.703125 -7.429688 2.328125 -6.625 2.234375 -5.625 L 9.375 -5.625 C 9.289062 -6.625 8.921875 -7.429688 8.265625 -8.046875 C 7.609375 -8.671875 6.785156 -8.984375 5.796875 -8.984375 Z M 5.796875 -8.984375 "/></g></g></g><g fill="#ffffff" fill-opacity="1"><g transform="translate(144.243206, 232.171991)"><g><path d="M 7.03125 -10.140625 C 8.289062 -10.140625 9.289062 -9.769531 10.03125 -9.03125 C 10.78125 -8.300781 11.15625 -7.238281 11.15625 -5.84375 L 11.15625 0 L 9.796875 0 L 9.796875 -5.703125 C 9.796875 -6.753906 9.535156 -7.550781 9.015625 -8.09375 C 8.492188 -8.644531 7.75 -8.921875 6.78125 -8.921875 C 5.695312 -8.921875 4.835938 -8.597656 4.203125 -7.953125 C 3.566406 -7.304688 3.25 -6.414062 3.25 -5.28125 L 3.25 0 L 1.890625 0 L 1.890625 -10.0625 L 3.203125 -10.0625 L 3.203125 -8.21875 C 3.566406 -8.820312 4.078125 -9.289062 4.734375 -9.625 C 5.390625 -9.96875 6.15625 -10.140625 7.03125 -10.140625 Z M 7.03125 -10.140625 "/></g></g></g><g fill="#ffffff" fill-opacity="1"><g transform="translate(161.047469, 232.171991)"><g><path d="M 7.203125 -0.609375 C 6.941406 -0.378906 6.625 -0.203125 6.25 -0.078125 C 5.875 0.0351562 5.484375 0.09375 5.078125 0.09375 C 4.128906 0.09375 3.398438 -0.160156 2.890625 -0.671875 C 2.378906 -1.179688 2.125 -1.898438 2.125 -2.828125 L 2.125 -8.921875 L 0.328125 -8.921875 L 0.328125 -10.0625 L 2.125 -10.0625 L 2.125 -12.265625 L 3.484375 -12.265625 L 3.484375 -10.0625 L 6.546875 -10.0625 L 6.546875 -8.921875 L 3.484375 -8.921875 L 3.484375 -2.90625 C 3.484375 -2.3125 3.632812 -1.859375 3.9375 -1.546875 C 4.238281 -1.234375 4.664062 -1.078125 5.21875 -1.078125 C 5.5 -1.078125 5.769531 -1.117188 6.03125 -1.203125 C 6.300781 -1.296875 6.53125 -1.425781 6.71875 -1.59375 Z M 7.203125 -0.609375 "/></g></g></g><g fill="#ffffff" fill-opacity="1"><g transform="translate(172.665693, 232.171991)"><g><path d="M 10.65625 -4.609375 L 2.234375 -4.609375 C 2.316406 -3.566406 2.71875 -2.722656 3.4375 -2.078125 C 4.164062 -1.429688 5.085938 -1.109375 6.203125 -1.109375 C 6.828125 -1.109375 7.398438 -1.21875 7.921875 -1.4375 C 8.441406 -1.664062 8.894531 -2 9.28125 -2.4375 L 10.046875 -1.546875 C 9.597656 -1.015625 9.039062 -0.609375 8.375 -0.328125 C 7.707031 -0.046875 6.96875 0.09375 6.15625 0.09375 C 5.125 0.09375 4.207031 -0.125 3.40625 -0.5625 C 2.613281 -1 1.992188 -1.609375 1.546875 -2.390625 C 1.097656 -3.171875 0.875 -4.050781 0.875 -5.03125 C 0.875 -6.019531 1.085938 -6.898438 1.515625 -7.671875 C 1.941406 -8.453125 2.53125 -9.054688 3.28125 -9.484375 C 4.03125 -9.921875 4.867188 -10.140625 5.796875 -10.140625 C 6.734375 -10.140625 7.570312 -9.921875 8.3125 -9.484375 C 9.050781 -9.054688 9.628906 -8.457031 10.046875 -7.6875 C 10.472656 -6.914062 10.6875 -6.03125 10.6875 -5.03125 Z M 5.796875 -8.984375 C 4.828125 -8.984375 4.015625 -8.671875 3.359375 -8.046875 C 2.703125 -7.429688 2.328125 -6.625 2.234375 -5.625 L 9.375 -5.625 C 9.289062 -6.625 8.921875 -7.429688 8.265625 -8.046875 C 7.609375 -8.671875 6.785156 -8.984375 5.796875 -8.984375 Z M 5.796875 -8.984375 "/></g></g></g><g fill="#ffffff" fill-opacity="1"><g transform="translate(188.072976, 232.171991)"><g><path d="M 3.203125 -8.09375 C 3.515625 -8.769531 3.984375 -9.28125 4.609375 -9.625 C 5.242188 -9.96875 6.03125 -10.140625 6.96875 -10.140625 L 6.96875 -8.828125 L 6.640625 -8.84375 C 5.578125 -8.84375 4.742188 -8.515625 4.140625 -7.859375 C 3.546875 -7.210938 3.25 -6.300781 3.25 -5.125 L 3.25 0 L 1.890625 0 L 1.890625 -10.0625 L 3.203125 -10.0625 Z M 3.203125 -8.09375 "/></g></g></g><path stroke-linecap="butt" transform="matrix(0.749978, -0.00578861, 0.00578861, 0.749978, 206.312158, 231.802382)" fill="none" stroke-linejoin="miter" d="M 0.00182136 0.497895 L 198.690034 0.50015 " stroke="#00bf63" stroke-width="1" stroke-opacity="1" stroke-miterlimit="4"/></svg>